/* XPM */
static char *_06ee9dd03cb46738b9d68edd19354c5DlpbBNADZjS9dKiZ[] = {
/* columns rows colors chars-per-pixel */
"72 72 237 2 ",
"   c #2C2A2B",
".  c #272626",
"X  c #322C2E",
"o  c #2E2B32",
"O  c #363231",
"+  c #3F251C",
"@  c #462C1E",
"#  c #462A22",
"$  c #4A322A",
"%  c #443833",
"&  c #513323",
"*  c #61352F",
"=  c #69483A",
"-  c #764D3B",
";  c #7B533E",
":  c #3F4643",
">  c #464B4A",
",  c #4A4A4B",
"<  c #464847",
"1  c #545355",
"2  c #5C5A5A",
"3  c #5A5757",
"4  c #50474C",
"5  c #6D544A",
"6  c #745648",
"7  c #715C54",
"8  c #66554F",
"9  c #75645D",
"0  c #5A6866",
"q  c #5B7474",
"w  c #636464",
"e  c #636867",
"r  c #656B6A",
"t  c #6A6C6B",
"y  c #6A6768",
"u  c #776760",
"i  c #776C67",
"p  c #69716E",
"a  c #7C726D",
"s  c #6E7371",
"d  c #667875",
"f  c #737474",
"g  c #797877",
"h  c #616E72",
"j  c #615F60",
"k  c #91554D",
"l  c #A45F53",
"z  c #926754",
"x  c #A4644F",
"c  c #A46253",
"v  c #AB6654",
"b  c #AE6A54",
"n  c #AA6957",
"m  c #B26B55",
"M  c #B26E5B",
"N  c #B67056",
"B  c #BB7657",
"V  c #BF7957",
"C  c #B6745B",
"Z  c #B9755A",
"A  c #BF7958",
"S  c #B3795C",
"D  c #AB7458",
"F  c #867A75",
"G  c #8F766F",
"H  c #BD7E61",
"J  c #B47964",
"K  c #AC7C6E",
"L  c #C27B5A",
"P  c #C37B57",
"I  c #C27F60",
"U  c #83583E",
"Y  c #72817E",
"T  c #BD8368",
"R  c #BA8975",
"E  c #A3897B",
"W  c #97827A",
"Q  c #CC845A",
"!  c #CD885E",
"~  c #C78155",
"^  c #DA8E5C",
"/  c #D68C5B",
"(  c #DB915D",
")  c #E89C5F",
"_  c #E69A5D",
"`  c #C38363",
"'  c #CD8961",
"]  c #C38669",
"[  c #C58B6D",
"{  c #CA8866",
"}  c #DE9969",
"|  c #D89363",
" . c #C38D71",
".. c #CA8E73",
"X. c #C18873",
"o. c #C5957D",
"O. c #C99478",
"+. c #D4956E",
"@. c #E49C65",
"#. c #DBA179",
"$. c #E9A874",
"%. c #687F82",
"&. c #8B7F86",
"*. c #798783",
"=. c #759593",
"-. c #5CB5BC",
";. c #56B8BD",
":. c #4CBCBF",
">. c #65B5B9",
",. c #7AB6BB",
"<. c #7FA6A4",
"1. c #749FA1",
"2. c #3FBECB",
"3. c #44BEC6",
"4. c #4CBAC4",
"5. c #44BDCB",
"6. c #4BB9C9",
"7. c #57B9C6",
"8. c #44BCD1",
"9. c #66B9C4",
"0. c #7BBAC1",
"q. c #3EC2C5",
"w. c #43C1C3",
"e. c #43C1CB",
"r. c #4BC3C7",
"t. c #54C4CB",
"y. c #5BC5CB",
"u. c #57C5C8",
"i. c #4BC4D0",
"p. c #66C7CB",
"a. c #77C7C9",
"s. c #6BCBD2",
"d. c #65CBD3",
"f. c #73CDD4",
"g. c #79CED6",
"h. c #79D2D8",
"j. c #6FD0D7",
"k. c #848485",
"l. c #868688",
"z. c #898689",
"x. c #888A89",
"c. c #979797",
"v. c #8E9493",
"b. c #AF9894",
"n. c #959FA1",
"m. c #A39FA1",
"M. c #85B9BB",
"N. c #9BB9BC",
"B. c #98B6BA",
"V. c #90A7A7",
"C. c #A7A7A7",
"Z. c #ACB3B4",
"A. c #A3B9BB",
"S. c #A8B6BA",
"D. c #B3B4B4",
"F. c #B5B8B5",
"G. c #BDBDBE",
"H. c #B6B7B9",
"J. c #B4ACAE",
"K. c #A3A29E",
"L. c #C39581",
"P. c #C59981",
"I. c #C89C89",
"U. c #D29E87",
"Y. c #D3A088",
"T. c #D6A585",
"R. c #C8A896",
"E. c #CFB1A3",
"W. c #CCB5AC",
"Q. c #CBB5AC",
"!. c #E5AF87",
"~. c #BDC2BC",
"^. c #C1C0BE",
"/. c #CDC0BA",
"(. c #D7C3B9",
"). c #F4C698",
"_. c #95BAC2",
"`. c #8ABFC0",
"'. c #BEBEC0",
"]. c #C3BEC1",
"[. c #89C7CA",
"{. c #98C6C7",
"}. c #8CCBD3",
"|. c #95CBD2",
" X c #83D4DB",
".X c #88D5D8",
"XX c #98D6D8",
"oX c #A8C8C8",
"OX c #BBC7C8",
"+X c #BBCCD2",
"@X c #A7D9D9",
"#X c #BBDADD",
"$X c #B6D7DA",
"%X c #A8CFD1",
"&X c #98DAE1",
"*X c #8CD8E1",
"=X c #A8DCE1",
"-X c #B8DEE3",
";X c #BAE3E6",
":X c #ADE0E1",
">X c #C3C3C4",
",X c #CCCDCC",
"<X c #C4C9C8",
"1X c #D1CBCC",
"2X c #D8C9C3",
"3X c #CDCED0",
"4X c #C4CFD0",
"5X c #CCD2D2",
"6X c #C7DCDC",
"7X c #D2D2D3",
"8X c #DAD6DA",
"9X c #DBDCDC",
"0X c #D6DAD8",
"qX c #CDD1C9",
"wX c #E1DDDD",
"eX c #E0D4DC",
"rX c #DAE1DC",
"tX c #CAE1DE",
"yX c #E2E3DE",
"uX c #DDDFE1",
"iX c #D6DFE1",
"pX c #C6DFE1",
"aX c #C7E3E4",
"sX c #D5E3E4",
"dX c #DCE3E3",
"fX c #D7E7EA",
"gX c #E3E4E4",
"hX c #E5EBE4",
"jX c #ECECEB",
"kX c #E8E8E7",
"lX c #EBF1EB",
"zX c #E7F0E9",
"xX c #ECF4F3",
"cX c #F3F4F4",
"vX c #F8F7F7",
"bX c #EFEFEE",
"nX c #E6DBE1",
/* pixels */
").$.Q v k G R.Z m ^ Q A A A A A N m ^ Q A A V V V m J !.$._ _ ) ) _ ( Q ( Q A A V V V N m ^ Q H A A L ` N m ^ Q A A A A A N m ^ Q A A A A A N l ",
").$.Q v k K R.Z m ^ Q A A A A A N m ^ Q A L L L L N M } | ' ! Q ! ' L B ( Q L L L L L N m ( ' P. .L  .P.Z m ^ Q A A A A A N m ^ Q A A A A A N l ",
"$./ P N n J T C b ^ Q A A A A A N m ^ Q B N b b N x x ~ A R J b J R n x ~ B b b b b b x x ~ B J S m H T N b ^ Q A A A A A N m ^ Q A A A A A N l ",
"Q N b b b b b c c / Q A A A A A N m ( P x = # # & # # & & $ $ # $ $ # # & # @ # # @ @ @ + @ # # # * k x c c / Q A A A A A N m ^ Q B V V V V N l ",
"#.' P P P P P B m ( Q A A A A A N m Q S z 5 X O O     o o o o o o o o o         X             X X 4 z D c v ( Q A A A A A N m ^ Q A V V A A N l ",
"$.} ^ ^ ^ ^ ^ Q L ( Q A A A A A m v D K K.J.C.C.C.C.C.C.C.C.C.C.C.C.J.C.C.C.C.C.C.K.C.C.C.K.C.C.C.J.Q.W 6 x ( Q V A A A A N m ^ Q  .] A ]  .Z l ",
") ! [ ` L ` [ Z m ^ Q A A A A V m c z v.>X0XgXgXgXgXgXgXgXgXdXdXgXgXkXkXgXgXyXyXyXrXyXhXyXyXgXkXgXnX8Xc.2 z T T J A A A A N m ^ ! o.[ A  .o.Z l ",
"_ ! P. .A  .P.C m ^ Q A A A V B n z W C.7XdXgXjXbXbXlXjXzXzXzXzXjXjXjXjXjXjXjXjXlXzXhXhXjXjXbXbXbXjXkXH.x.g g x.E Z P A A N b Q L C C N C C b k ",
") Q H A A L ` N m ^ Q A A B x k z G C.G.3X9XgXkXjXzXzXhXhXzXlXlXlXjXkXjXjXjXlXlXlXlXzXhXjXlXlXjXkXkXkX0X~.*.0 r F  .[ A A N n ` Z m m m m m v k ",
") Q B V A V V m m ^ Q A A B - % 2 z.>X7X<X7X9XuXdXrXrXrXgXhXzXlXzXkXgXgXkXjXjXjXjXlXzXhXhXjXkXyX9XwXyXlXdXx.> < i R.O.A V N M #.} ^ ^ ^ ^ ^ Q N ",
") Q A A A A A N m ^ Q A L B - % 2 l.G.,X<X7XdXdXdXrXrXgXkXjXcXvXcXcXcXcXvXvXvXcXcXxXxXcXcXbXbXkXyXwXyXkXrX*.> : i E.U.L V N M } | ' Q Q Q ' L v ",
") Q A A A A A N m ^ Q A A B ; % 2 l.H.,X<X7XdXdXdXdXgXkXkXkXjXlXcXcXcXcXcXcXxXxXxXxXxXxXlXjXjXjXkXyX9XrX5X*.> < i E.Y.L V N m ^ ! o.[ A  .o.C l ",
") Q A A A A A N m ^ Q B V B - % 2 z.>X5X<X3X9XdXdXkXxXxXdX0X4XOX+X+X+X+X+X+X+X+X+X+X+X+X+X<X0XkXcXcXyXkXrX*.< > a E.U.L V N m ^ Q  .] A ]  .C l ",
") Q A A A A A N m ^ Q A V B - % 2 z.>X7X>X,X9XdXdXhXfXfX6XoXN.B.B.B.N.N.B._._._._._.N.N.A.S.<X0XjXkXyXkXrX*.< > a E.U.L A N m ^ Q A V V A L N l ",
") Q A A A A A N m ^ Q  .] Z 6 % 2 z.>X,X>X7XdXdXiXsXaX$X{.M.,.,.,.,.,.0.0.0.0.,.,.,.,.,.M.N.H.OX5X7X7XgX9Xk.< , a W.Y.]  .C m ^ Q B V V V V N l ",
") Q A A A A A N m ^ ! o. .Z 6 % 2 l.G.,X<X7XdXdXsX6X$X|.0.>.>.>.>.>.>.>.9.9.9.9.>.>.>.>.M.B.A.H.OX,X7XuX9Xk., , a W.Y. .o.C m ^ Q A A A A A N l ",
") Q A A A A A N b Q L C C b - % 2 l.H.,X,X7X9XdXsX6X%X0.>.-.;.;.;.;.;.;.;.7.7.7.4.;.-.>.,._.A.S.H.>X3X9X8Xl., , a E.I.C C v v ^ Q A A A A A N l ",
") Q A A A A A N n ` Z m m b = % 2 l.G.,X<X5X9XdXsX#X{.9.-.4.4.4.4.4.4.4.6.6.6.6.4.4.;.>.,._.A.H.H.].1XwX8Xz., , a R.I.M m c c ^ Q A A A A A N l ",
") Q A A A A A N M #.} ^ ^ / U % 2 l.G.,X<X5X9XdXsX$X|.9.4.6.3.3.3.5.6.5.6.5.5.8.6.6.4.-.,._.A.H.H.].1XnXeX&.4 4 F E.!.^ ^ Q L ( Q A A A A A N l ",
") Q A A A A A m M } | ! ! ~ ; % 2 l.G.,X<X5X9XdXsX#X|.9.4.6.5.5.5.5.5.5.5.8.8.8.5.6.4.7.0._.A.S.H.].1XwX8X&.4 , F E.T.Q Q L N ( Q A A A A A N l ",
") Q A A A A A m m ^ ! o.[ Z 6 O 2 l.'.3X<X5XiXdXsX#X}.9.6.5.5.5.5.5.5.5.5.8.8.8.5.6.6.-.,._.S.H.H.].1XwX8Xk.4 , a E.U.A V m m ^ Q A A A A A N l ",
") Q B V V V V m m ^ Q  .] B 6 O 2 l.'.3X<X5XiXdXsX#X}.9.6.5.5.5.5.5.5.5.5.5.8.8.5.6.6.-.,.B.A.Z.F.~.,X9X0Xk., , a E.U.A V N m ^ Q A A A A A N l ",
") Q A V V A A N m ^ Q A P B = X 3 l.G.3X<X5XiXdXsX#X}.7.6.5.5.5.q.e.5.5.5.5.8.8.5.5.4.-.,.B.S.F.F.~.qXrX0X*.< < a E.Y.L V N m ^ Q A A A A A N l ",
"_ !  .] A ]  .C m ^ Q B P B =   1 l.G.3X<X5XiXdXsX#X}.7.6.5.2.e.q.e.5.5.5.5.8.5.5.3.4.-.,.B.S.D.F.~.qXrX0X*.< < a E.Y.L V N m ^ Q A A A A A N l ",
"_ ! o. .A  .o.C m ^ Q A L B =   1 l.G.3X<X5XsXdXsX#X}.7.6.2.q.q.q.q.3.3.5.5.5.5.5.3.4.-.,.B.Z.D.F.~.qXrX0X*.< < a E.Y.L V N m ^ Q A A A A A N l ",
"( L C C N C C b v ^ Q A L B = . 1 l.G.3X<X5XsXdXsX#X}.7.3.2.q.q.q.w.w.3.3.5.5.5.5.3.4.-.,.B.Z.D.F.~.qXrX0Xk.< , a E.Y.L V N m ^ Q A A A A A N l ",
"{ Z m m m m m c c / Q A P B =   1 l.G.3X<X5XsXdXfX-X}.7.6.5.e.w.q.w.w.3.3.5.5.5.5.w.:.-.,.B.Z.D.D.~.qX9X0Xk., , a E.Y.L V N m ^ Q B V A V V N l ",
"!.} ^ ^ ^ ^ ^ Q A ( Q A P B =   1 l.G.3X<X5XsXfXfX#X}.9.6.5.e.w.w.w.w.w.3.5.5.5.e.w.:.-.,.B.Z.D.D.~.qX9X0Xk., , a E.Y.L V N m ^ Q H A L L ` N l ",
"$./ ' Q Q Q ' L N ( Q V L Z =   1 l.G.3X<X5XsXdXfX-X}.9.7.6.r.r.r.r.r.r.w.e.e.e.e.e.4.-.,.B.Z.D.D.~.qX9X8Xk., , a E.Y.L V N m ^ ' P. .L  .P.Z l ",
"_ ! o. .A  .o.C m ^ Q V L H =   1 l.G.3X<X5XsXdXsX#X|.9.7.6.t.r.r.r.r.r.r.i.i.e.e.e.r.-.,.B.Z.D.D.~.,X9X8Xl., , a E.Y.L V N m / Q T T B T ] C l ",
"_ !  .] A ]  .C m ^ Q B I T 5   1 l.G.3X<X5XsXdXsX#X|.9.7.7.t.t.r.r.r.t.r.i.i.i.i.r.r.-.,.N.Z.D.F.^.,X9X9Xl., , a E.Y.L V N v P N b b b b b c k ",
") Q A V V A L N m ^ Q B ` T 5   1 l.G.3X<X5XsXdXsX#X|.9.7.t.t.y.u.u.t.t.t.t.i.i.t.r.u.9.M.B.Z.D.F.^.,X9X9Xl., , a E.Y.L V N n ..' P P P P P B c ",
") Q B V V V V m m ^ Q B `  .5   1 l.G.,XOX5XdXdXsX#X|.a.y.y.y.y.y.y.y.y.y.t.t.t.t.u.y.p.M.B.S.D.H.>X,X9X9Xl., > a E.Y.L V N M #.} ^ ^ ^ ^ ^ Q N ",
") Q A A A A A N m ^ Q B `  .5   1 l.G.3XOX5XdXdXsX#XXXa.y.y.y.y.y.y.y.y.y.y.y.y.y.u.p.a.M.B.S.Z.H.>X,X9X0Xk.> > a E.Y.L V N m ( ! [ ` L ` [ Z c ",
") Q A A A A A N m ^ Q B `  .5   1 l.G.3XOX5XdXdXsX#XXXa.p.y.y.y.p.p.p.p.p.y.y.y.y.y.p.a.M.N.S.Z.F.>X,X9X0Xk.> < a E.Y.A V N m ^ ! L. .A  .P.C l ",
") Q A A A A A N m ^ Q B `  .5   1 l.G.3XOX5XdXdXsX#XXXa.p.d.d.d.p.p.p.p.d.d.d.d.d.p.p.a.M.N.S.D.F.>X,X9X0Xk.< < a E.Y.A V N m ^ Q H A A L ` N l ",
") Q A A A L A N m ^ Q H ]  .5   1 l.'.3XOX5XdXdXsX#XXXa.p.d.d.d.s.s.s.s.s.d.d.d.d.p.p.a.`.N.S.Z.H.].1XwX0Xk., , a E.U.` ` C m ^ Q B V A V V N l ",
") Q A A A A A m m ^ ' P.O. .7   1 l.'.3XOX5XsXdXsX6X%Xa.s.d.d.s.s.s.s.s.s.s.s.d.d.s.f.a.`.N.S.D.H.].1XwX0Xk., , a R.O. .P.C m ^ Q A A A A A N l ",
") Q A A A A A N m / Q T [ R 5   1 l.'.3XOX5XdXdXsX6X@X[.f.s.s.s.s.f.f.f.s.s.j.s.s.s.f.a.`.N.Z.D.H.].1XwX0Xl., , i I...T ] N b ^ Q A A A A A N l ",
") Q A A A A A N v P N b J K 5   1 l.'.3XOX5XdXdXsX6X@X[.f.f.f.f.f.f.f.f.f.f.j.j.s.f.f.a.`.N.Z.D.H.].1XwX0Xl., , 9 R R b b c c / Q A A A A A N l ",
") Q A A A A A N n ..' P { ..5   1 l.'.3X<X5XdXdXsXpX@X}.g.j.j.g.f.g.g.g.g.g.h.j.j.j.g.[.{.A.Z.D.F.].1XwX0Xl., , u P.+.P P B m ( Q A A A A A N l ",
") Q A A A A A N M #.} / } #.6   1 l.'.3X<X5XdXdXsXpX@X}.g.h.h.h.g.g.g.g.h.h.h.h.h.h.g.[.{.A.Z.D.H.].1XwX0Xl., , u T.#.^ ^ Q L ( Q A A A A A N l ",
") Q A A A A A N m ( ! [ ..o.7   1 l.'.3X<X5XdXdXsX6X$X|.}. Xg. X X X X Xh.h.h.h.h.h. X[.{.A.Z.D.H.].1XwX0Xl., , i I...] [ Z m ^ Q A A A A A N l ",
") Q A A A A A N m ^ ' o.P.L.7   1 l.'.3X>X5X9XdXdX6X$X|.}. X.X.X.X.X X X X X Xh.h.h. X}.{.A.Z.D.F.>X1XwX0Xk., , i R... .P.C m ^ Q A A A A A N l ",
") Q B V A V V m m ^ Q A  .P.7   1 l.'.3X>X5X9XdXdXtX$X|.}..X X X.X.X.X X X X X X X X.X}.{.A.Z.D.F.^.,XwX0Xk., , u P...L ` N m ^ Q A A A A A N l ",
"_ Q H L A L ` N m ^ Q B [ I.7   1 z.G.,X>X5X9XdXdXaX#XXXXXXX.X.X.X.X.X.X.X.X*X X X.X.X|.{.A.Z.D.F.^.,X9X8Xk., , u L...A V N m ^ Q A A A A A N l ",
"_ ' P. .L  .P.C m ^ Q B  .I.7   3 z.G.,X<X5X9XdXdXsX#X%X|.XXXXXXXXXXXX.X.X*X*X*X.X.X.XXX{.A.Z.D.F.^.,X9X0Xk., , u L...A V N m ^ Q A A A A A N l ",
"_ Q T T B T ] N b ^ Q B ..I.7   3 z.G.,X<X5XuXdXdX6X#X%X|.|.XXXXXXXXXXXXXX&X&X&X.X.XXXXX{.A.Z.D.F.^.,X9X0Xk., , u L...A V N m ^ Q A A A A A N l ",
"! N b b b b b c c / Q B ..I.7   1 z.G.,X<X7XuXgXdX6XOXoX_.[.{.XXXXXXXXXXXX&X&X&X&XXXXXXX{.A.Z.D.F.^.,X9X0Xl., , u L...A V N m ^ Q B V V V V N l ",
"#.' P P P P P B m ( Q B ..I.7   1 z.G.,X<X7XuXgXiX4XA.1.=.1.M.{.XX@XXXXX@X&X&X&X&XXXXX@XoXA.Z.D.F.^.,X9X0Xl., , u L...A V N m ^ Q A V V A A N l ",
"$.} / ^ ^ ^ ^ Q L ( Q B ..I.7   1 z.'.,X<X7XdXgX9X<XV.%.q *.<.{.%X@X@X@X@X=X=X&X&XXXXX@XoXA.Z.D.F.~.,X9X0Xl., , u L...A V N m ^ Q  .] A ]  .Z l ",
") ! [ ` L ` [ Z m ^ Q B ..I.7   1 z.'.3X>X7XuXgX9XOXn.h 0 q <.{.%X@X@X@X@X@X=X=X=X@X@X@XoXS.Z.D.F.~.,X9X0Xl., , u L...A V N m ^ ! o.[ A  .o.Z l ",
"_ ! P. .A  .P.C m ^ Q B [ I.7   1 z.].3X>X7XuXgX9XOXc.h 0 q =.B.oX%X%X@X@X@X=X=X=X=X@X@XoXS.Z.D.F.~.,X9X0Xl., , u L...A V N b Q L C C N C C b k ",
") Q H A A L ` C m ^ Q B [ P.7   1 z.].3X>X7XdXkXdX<Xn.s 0 q *.V.V.B.B.oX$X$X=X=X:X=X:X@XoXS.Z.D.F.^.,X9X0Xl., , u L...A V N n ` Z m m m m m v k ",
") Q B V A V V m m ^ Q B [ L.5   1 z.].3X>X3XuXkXdX<Xm.f t p d *.=.=.=.B.$X-X-X-X=X=X:X$XoXS.Z.D.F.^.,X9X0Xk., , u L...A V N M #.} ^ ^ ^ ^ ^ Q N ",
") Q A A A A A N m ^ Q B ] o.5   1 z.].3X>X3X9XgXuX<Xm.f t s d d q d Y V.#X;X-X-X-X:X:X$XoXS.Z.D.F.^.,X9X8Xk., , u L...A V m M } | ' Q Q Q ' L v ",
") Q A A A A A N m ^ Q B ] o.7   1 z.].3X<X3X9XgXuX<Xc.t w t r 0 0 0 d V.#XaX;X;X;X;X;X#XOXS.Z.D.F.^.,X9X8Xk., , u L...A V N m ^ ! o.[ A  .o.C l ",
") Q A A A A A N m ^ Q B ] o.7   1 z.'.3X<X3X9XgXuX>Xc.y w t e 0 0 0 d v.oX%X%X$X;X;X;X#X+XS.Z.D.F.^.,X9X8Xk., , u L...A V m m ^ Q  .] A ]  .C l ",
") Q A A A A A N m ^ Q V ] o.5   1 k.'.3X<X7X9XgXuX<Xm.a t i t r r p d *.v.V.V.N.%XaXaX6XOXF.D.D.F.^.,X9X8Xk., , u L...A A N m ^ Q A V V A L N l ",
") Q A A A A A N m ^ Q  ...o.7 X 1 l.G.,X<X7X9XgXuX<Xm.g t i t t p p d d *.*.*.V.oXaXaXtX+XH.Z.D.F.^.,X9X0Xl., , i I...]  .C m ^ Q B V V V V N l ",
") Q A A A A A N m ^ ! o.O.O.7 O 3 l.G.,X<X7X9XgX9X<Xm.f y t y t r r r p r r d v.S.6XsXtX4XH.Z.Z.F.OX,X9X0Xl., , i I... .o.C m ^ Q A A A A A N l ",
") Q A A A A A N b Q L C H R 5   1 l.>X,X<X,X9XgX9X>Xc.t w y r r e e e e e 0 r l.C.5X0X5XOXF.Z.Z.F.OX,X9X7Xk., , u b.X.C C b v ^ Q A A A A A N l ",
") Q A A A A A N n ` Z b J J = . 1 l.>X7X>X,X9XgXwX>Xc.w 2 e e e e e e e e e r *.n.OX4X~.H.D.Z.D.F.OX,X0X7XW < , 9 R X.m m c c / Q A A A A A N l ",
") Q A A A A A N M #.} / | +.6   1 z.Q.,X>X7X9XgX9XQ.c.w w t s s t t t t p r p g x.v.v.v.c.C.Z.D.D.G.,XuX0Xl., , u T.#.^ ^ Q A ( Q A A A A A N l ",
") Q A A A A A m M } | ! ' { 6   1 l.G.,X>X7XgXgX9XG.v.w w t f f f s s s s p p s f s p s x.C.Z.F.D.G.3XgX9Xl., , u I.+.! ! L N ( Q A A A A A N l ",
") Q A A A A A m m ^ ! o. .T 5   1 k.G.3X<X7X9XkXgX>Xv.2 3 y y y y r r r e e e e e e e t l.C.Z.F.F.>X5XrX0Xk.< < i I... .o.C m ^ Q A A A A A N l ",
") Q B V V V V m m ^ Q  .[ T 5   1 l.G.3X<X7X9XgXwX>Xv.2 3 e w w w e r e e e e w 0 e e t k.c.C.Z.D.G.,X9X7Xk., < u P...]  .C m ^ Q A A A A A N l ",
") Q A V V A A N m ^ Q A L H 5 X 3 z.G.,X<X5X0XgX0X>Xc.w 3 w 2 2 w e y y e y t t r r t s Y x.v.c.C.F.,X0X7Xl.1 1 u o.[ A L N m ^ Q A A A A A N l ",
"_ !  .] A ]  .C m ( Q B L H =   1 z.G.,X>X3XdXgX0X>Xc.w 1 3 3 3 0 e t t t s f s s t t f g g g k.v.Z.,X9X7Xk., , 9 R ] A V m m ^ Q A A A A A N l ",
"_ ! o. .A  .o.C m ( Q B L H = . 1 x.G.,X^.1XwXyX0X>Xc.j 1 3 1 3 w y f f s f f f f s s f f f f f l.C.,XwX8XF < < 7 T ` A A m m ^ Q A A A A A N l ",
"( L C C N Z Z b v ^ Q V L Z = . 1 l.G./.Q./.2X2X2XQ.c.w 1 3 3 2 e t g g f f f f g g f f f f f g l.C.<X1X2XF , , 7 S L A A m m ^ Q A A A A A N l ",
"L v l l l l l k k / Q A L A 6 4 t c.Q.(.Q.W.W.(.(.Q.C.g i f a a a F F F F F F F F F F F a F a F F b.Q.Q.b.F 7 7 z C L A L N m ^ Q A A A A A N l "
};
