/* XPM */
static char *_6500fce03ca4df7957e18a7efa537a1bfJV2AqRnVLdKZqN[] = {
/* columns rows colors chars-per-pixel */
"72 72 96 2 ",
"   c #814A4B",
".  c #864B4D",
"X  c #854C4C",
"o  c #88484A",
"O  c #8A514D",
"+  c #8E524E",
"@  c #995751",
"#  c #9A5851",
"$  c #9F5C52",
"%  c #A05B53",
"&  c #A15E53",
"*  c #A35F55",
"=  c #A45F54",
"-  c #9D6051",
";  c #A76152",
":  c #A46552",
">  c #A76254",
",  c #A96252",
"<  c #A86254",
"1  c #A96454",
"2  c #AC6655",
"3  c #AD6854",
"4  c #A76459",
"5  c #B26E55",
"6  c #B46E56",
"7  c #B77156",
"8  c #BD7352",
"9  c #BE7452",
"0  c #B97255",
"q  c #BB7557",
"w  c #BD7656",
"e  c #BF7856",
"r  c #BC7558",
"t  c #BF7858",
"y  c #987677",
"u  c #B67960",
"i  c #C07855",
"p  c #C07A58",
"a  c #C37C58",
"s  c #C77F58",
"d  c #C17D5D",
"f  c #C87E5A",
"g  c #BF8063",
"h  c #CA8057",
"j  c #CD8256",
"k  c #C7815A",
"l  c #C3805E",
"z  c #C88059",
"x  c #CC8459",
"c  c #CE875C",
"v  c #CF885C",
"b  c #D38C5E",
"n  c #D88E5D",
"m  c #DF925B",
"M  c #DF935D",
"N  c #DF945C",
"B  c #E0945B",
"V  c #E0955E",
"C  c #E79A5F",
"Z  c #E89B5F",
"A  c #E89C5F",
"S  c #ED9E5E",
"D  c #C28363",
"F  c #CA8460",
"G  c #C28668",
"H  c #C0876D",
"J  c #C2896D",
"K  c #C58B6C",
"L  c #C58C6D",
"P  c #C39076",
"I  c #C59277",
"U  c #C59379",
"Y  c #C59479",
"T  c #D39C7A",
"R  c #E39C65",
"E  c #E49D65",
"W  c #D7A27E",
"Q  c #EDA060",
"!  c #E8A169",
"~  c #EFA86B",
"^  c #F1AA6B",
"/  c #F1AD71",
"(  c #C6A691",
")  c #C8A792",
"_  c #CAA892",
"`  c #C8AB97",
"'  c #CAAC97",
"]  c #CAAD98",
"[  c #EDB686",
"{  c #F4BE8B",
"}  c #E9BB92",
"|  c #CFB7A3",
" . c #CFB8A4",
".. c #EFC399",
"X. c #F4CBA0",
"o. c #F4CCA1",
/* pixels */
"X.^ x 2 o y | 0 > C z t t t t p 0 > C z t t t t p 0 4 ..~ S Q Q Q Q C a A k t t t t p 0 > C z t t t t p 0 > C z t t t t p 0 > C z t t t t p q & ",
"o.^ x 2 o y  .0 > C z t t t t p 0 > C z t t t t p 0 > ! c s s k s z p 2 C z t t t t p 0 > C s ` U 9 U ' 0 > C z t t t t p 0 > C z t t t t p q & ",
"/ b a q 5 u K q < C z t t t t p 0 > C z t t t t p 0 > C s ( P 8 P ) 0 > C z t t t t p 0 > Z z J D i D L q < C z t t t t p 0 > C z t t t t p q & ",
"j 3 > 1 1 , , & + C z t t t t p 0 > C z t t t t p 0 > C z P G w G I 0 > C z t t t t p q = h 3 ; , 1 , , & + C z t t t t p 0 > C z t t t t p q & ",
"W F s f f f f t : C k t t t t p 0 > C z w e t e i 0 > C z w e t e i 0 > C z t t t t p q > T F s f f f f t : C k t t t t p 0 > C z w e t e i q & ",
"{ R m N V N B n r A k t t t t p 0 > C z P G w G I 0 > C z t t t t p 0 > C z t t t t p 0 4 [ E m N V N B n r A k t t t t p 0 > C z P G w G I q & ",
"S s H g w g J 7 > C z t t t t p 0 > Z z ) I 9 I _ 0 < C z t t t t p 0 > C z t t t t p 0 > C s H g w g J 7 > C z t t t t p 0 > Z z ) I 9 I _ q & ",
"Q s ` Y 9 Y ] 0 > C z t t t t p 0 > M p 0 0 0 0 0 5 & C z t t t t p 0 > C z t t t t p 0 > C s ` Y 9 Y ] 0 > C z t t t t p 0 > M p 0 0 0 0 0 6 # ",
"Q k t t t t p 0 > C z t t t t p q * d 2 > > > > < $ O C z t t t t p 0 > C z t t t t p 0 > C z t t t t p 0 > C z t t t t p q * d 2 > > > > < &   ",
"Q k t t t t p 0 > C z t t t t p 0 4 } ! C C C C Z N t A k t t t t p 0 > C z t t t t p 0 > C z t t t t p 0 > C z t t t t p 0 4 } ! C C C C Z N q ",
"Q k t t t t p 0 > C z t t t t p 0 > ! v s k z k z p 2 C z t t t t p 0 > C s ` Y 9 Y ] 0 > C z t t t t p 0 > C z t t t t p 0 > ! v s k z k z p > ",
"Q k t t t t p 0 > C z t t t t p 0 > C s ( P 8 P ) 0 > C z t t t t p 0 > Z z J D i D L q < C z t t t t p 0 > C z t t t t p 0 > C s ( P 8 P ) 0 % ",
"Q k t t t t p 0 > C z t t t t p 0 > C z P G w G I 0 > C z t t t t p q = h 3 ; , 1 , , & + C z t t t t p 0 > C z t t t t p 0 > C z P G w G I q & ",
"Q k t t t t p 0 > C z w e t e i 0 > C z w e t e i 0 > C z t t t t p q > T F s f f f f t : C k t t t t p 0 > C z w e t e i 0 > C z w e t e i q & ",
"Q k t t t t p 0 > C z P G w G I 0 > C z t t t t p 0 > C z t t t t p 0 4 [ E m N V N B n r A k t t t t p 0 > C z P G w G I 0 > C z t t t t p q & ",
"Q k t t t t p 0 > Z z ) I 9 I _ 0 < C z t t t t p 0 > C z t t t t p 0 > C s H g w g J 7 > C z t t t t p 0 > Z z ) I 9 I _ 0 < C z t t t t p q & ",
"Q k t t t t p 0 > M p 0 0 0 0 0 5 & C z t t t t p 0 > C z t t t t p 0 > C s ` Y 9 Y ] 0 > C z t t t t p 0 > M p 0 0 0 0 0 5 & C z t t t t p q & ",
"Q k t t t t p q * d 2 > > > > < $ O C z t t t t p 0 > C z t t t t p 0 > C z t t t t p 0 > C z t t t t p q * d 2 > > > > < $ O C z t t t t p q & ",
"Q k t t t t p 0 4 } ! C C C C Z N t A k t t t t p 0 > C z t t t t p 0 > C z t t t t p 0 > C z t t t t p 0 4 } ! C C C C Z N t A k t t t t p q & ",
"Q k t t t t p 0 > ! v s k z k z p 2 C z t t t t p 0 > C s ` Y 9 Y ] 0 > C z t t t t p 0 > C z t t t t p 0 > ! v s z z z z p 2 C z t t t t p q & ",
"Q k t t t t p 0 > C s ( P 8 P ) 0 > C z t t t t p 0 > Z z J D i D L q < C z t t t t p 0 > C z t t t t p 0 > C s r t t t t 0 > C z t t t t p q & ",
"Q k t t t t p 0 > C z P G w G I 0 > C z t t t t p q = h 3 ; , 1 , , & + C z t t t t p 0 > C z t t t t p 0 > C z t t t t p 0 > C z t t t t p q & ",
"Q k w e t e i 0 > C z w e t e i 0 > C z t t t t p q > T F s f f f f t : C k t t t t p 0 > C z w e t e i 0 > C z t t t t p 0 > C z t t t t p q & ",
"Q k P G w G I 0 > C z t t t t p 0 > C z t t t t p 0 4 [ E m N V N B n r A k t t t t p 0 > C z P G w G I 0 > C z t t t t p 0 > C z t t t t p q & ",
"Q z ) I 9 I _ 0 < C z t t t t p 0 > C z t t t t p 0 > C s H g w g J 7 > C z t t t t p 0 > Z z ) I 9 I _ 0 < C z t t t t p 0 > C z t t t t p q & ",
"C p 0 0 0 0 0 5 & C z t t t t p 0 > C z t t t t p 0 > C s ` Y 9 Y ] 0 > C z t t t t p 0 > M p 0 0 0 0 0 5 & C z t t t t p 0 > C z t t t t p q & ",
"l 2 > > > > < $ O C z t t t t p 0 > C z t t t t p 0 > C z t t t t p 0 > C z t t t t p q * d 2 > > > > < $ O C z t t t t p 0 > C z t t t t p q & ",
"..! C C C C Z N t A k t t t t p 0 > C z t t t t p 0 > C z t t t t p 0 > C z t t t t p 0 4 } ! C C C C Z N t A k t t t t p 0 > C z t t t t p q & ",
"~ c s k z k z p 2 C z t t t t p 0 > C s ` Y 9 Y ] 0 > C z t t t t p 0 > C z t t t t p 0 > ! v s k z k z p 2 C z t t t t p 0 > C s ` Y 9 Y ] 0 % ",
"S s ( P 8 P ) 0 > C z t t t t p 0 > Z z J D i D L q < C z t t t t p 0 > C z t t t t p 0 > C s ( P 8 P ) 0 > C z t t t t p 0 > Z z J D i D L q & ",
"Q k P G w G I 0 > C z t t t t p q = h 3 ; , 1 , , & + C z t t t t p 0 > C z t t t t p 0 > C z P G w G I 0 > C z t t t t p q = h 3 ; , 1 , , & . ",
"Q k w e t e i 0 > C z t t t t p q > T F s f f f f t : C k t t t t p 0 > C z w e t e i 0 > C z w e t e i 0 > C z t t t t p q > T F s f f f f p - ",
"Q k t t t t p 0 > C z t t t t p 0 4 [ E m N V N B n r A k t t t t p 0 > C z P G w G I 0 > C z t t t t p 0 > C z t t t t p 0 4 [ E m N V N B n 7 ",
"Q k t t t t p 0 > C z t t t t p 0 > C s H g w g J 7 > C z t t t t p 0 > Z z ) I 9 I _ 0 < C z t t t t p 0 > C z t t t t p 0 > C s H g w g J 0 % ",
"Q k t t t t p 0 > C z t t t t p 0 > C s ` Y 9 Y ] 0 > C z t t t t p 0 > M p 0 0 0 0 0 5 & C z t t t t p 0 > C z t t t t p 0 > C s ` Y 9 Y ] 0 % ",
"Q k t t t t p 0 > C z t t t t p 0 > C z t t t t p 0 > C z t t t t p q * d 2 > > > > < $ O C z t t t t p 0 > C z t t t t p 0 > C z t t t t p q & ",
"Q k t t t t p 0 > C z t t t t p 0 > C z t t t t p 0 > C z t t t t p 0 4 } ! C C C C Z N t A k t t t t p 0 > C z t t t t p 0 > C z t t t t p q & ",
"Q k t t t t p 0 > C s ` Y 9 Y ] 0 > C z t t t t p 0 > C z t t t t p 0 > ! v s k z k z p 2 C z t t t t p 0 > C s ` Y 9 Y ] 0 > C z t t t t p q & ",
"Q k t t t t p 0 > Z z J D i D L q < C z t t t t p 0 > C z t t t t p 0 > C s ( P 8 P ) 0 > C z t t t t p 0 > Z z J D i D L q < C z t t t t p q & ",
"Q k t t t t p q = h 3 ; , 1 , , & + C z t t t t p 0 > C z t t t t p 0 > C z P G w G I 0 > C z t t t t p q = h 3 ; , 1 , , & + C z t t t t p q & ",
"Q k t t t t p q > T F s f f f f t : C k t t t t p 0 > C z w e t e i 0 > C z w e t e i 0 > C z t t t t p q > T F s f f f f t : C k t t t t p q & ",
"Q k t t t t p 0 4 [ E m N V N B n r A k t t t t p 0 > C z P G w G I 0 > C z t t t t p 0 > C z t t t t p 0 4 [ E m N V N B n r A k t t t t p q & ",
"Q k t t t t p 0 > C s H g w g J 7 > C z t t t t p 0 > Z z ) I 9 I _ 0 < C z t t t t p 0 > C z t t t t p 0 > C s H g w g J 7 > C z t t t t p q & ",
"Q k t t t t p 0 > C s ` Y 9 Y ] 0 > C z t t t t p 0 > M p 0 0 0 0 0 5 & C z t t t t p 0 > C z t t t t p 0 > C s ` Y 9 Y ] 0 > C z t t t t p q & ",
"Q k t t t t p 0 > C z t t t t p 0 > C z t t t t p q * d 2 > > > > < $ O C z t t t t p 0 > C z t t t t p 0 > C z t t t t p 0 > C z t t t t p q & ",
"Q k t t t t p 0 > C z t t t t p 0 > C z t t t t p 0 4 } ! C C C C Z N t A k t t t t p 0 > C z t t t t p 0 > C z t t t t p 0 > C z t t t t p q & ",
"Q s ` Y 9 Y ] 0 > C z t t t t p 0 > C z t t t t p 0 > ! v s k z k z p 2 C z t t t t p 0 > C s ` Y 9 Y ] 0 > C z t t t t p 0 > C z t t t t p q & ",
"Q z J D i D L q < C z t t t t p 0 > C z t t t t p 0 > C s ( P 8 P ) 0 > C z t t t t p 0 > Z z J D i D L q < C z t t t t p 0 > C z t t t t p q & ",
"x 3 ; , 1 , , & + C z t t t t p 0 > C z t t t t p 0 > C z P G w G I 0 > C z t t t t p q = h 3 ; , 1 , , & + C z t t t t p 0 > C z t t t t p q & ",
"W F s f f f f t : C k t t t t p 0 > C z w e t e i 0 > C z w e t e i 0 > C z t t t t p q > T F s f f f f t : C k t t t t p 0 > C z w e t e i q & ",
"{ R m N V N B n r A k t t t t p 0 > C z P G w G I 0 > C z t t t t p 0 > C z t t t t p 0 4 [ E m N V N B n r A k t t t t p 0 > C z P G w G I q & ",
"S s H g w g J 7 > C z t t t t p 0 > Z z ) I 9 I _ 0 < C z t t t t p 0 > C z t t t t p 0 > C s H g w g J 7 > C z t t t t p 0 > Z z ) I 9 I _ q & ",
"Q s ` Y 9 Y ] 0 > C z t t t t p 0 > M p 0 0 0 0 0 5 & C z t t t t p 0 > C z t t t t p 0 > C s ` Y 9 Y ] 0 > C z t t t t p 0 > M p 0 0 0 0 0 6 # ",
"Q k t t t t p 0 > C z t t t t p q * d 2 > > > > < $ O C z t t t t p 0 > C z t t t t p 0 > C z t t t t p 0 > C z t t t t p q * d 2 > > > > < &   ",
"Q k t t t t p 0 > C z t t t t p 0 4 } ! C C C C Z N t A k t t t t p 0 > C z t t t t p 0 > C z t t t t p 0 > C z t t t t p 0 4 } ! C C C C Z N q ",
"Q k t t t t p 0 > C z t t t t p 0 > ! v s k z k z p 2 C z t t t t p 0 > C s ` Y 9 Y ] 0 > C z t t t t p 0 > C z t t t t p 0 > ! v s k z k z p > ",
"Q k t t t t p 0 > C z t t t t p 0 > C s ( P 8 P ) 0 > C z t t t t p 0 > Z z J D i D L q < C z t t t t p 0 > C z t t t t p 0 > C s ( P 8 P ) 0 % ",
"Q k t t t t p 0 > C z t t t t p 0 > C z P G w G I 0 > C z t t t t p q = h 3 ; , 1 , , & + C z t t t t p 0 > C z t t t t p 0 > C z P G w G I q & ",
"Q k t t t t p 0 > C z w e t e i 0 > C z w e t e i 0 > C z t t t t p q > T F s f f f f t : C k t t t t p 0 > C z w e t e i 0 > C z w e t e i q & ",
"Q k t t t t p 0 > C z P G w G I 0 > C z t t t t p 0 > C z t t t t p 0 4 [ E m N V N B n r A k t t t t p 0 > C z P G w G I 0 > C z t t t t p q & ",
"Q k t t t t p 0 > Z z ) I 9 I _ 0 < C z t t t t p 0 > C z t t t t p 0 > C s H g w g J 7 > C z t t t t p 0 > Z z ) I 9 I _ 0 < C z t t t t p q & ",
"Q k t t t t p 0 > M p 0 0 0 0 0 5 & C z t t t t p 0 > C z t t t t p 0 > C s ` Y 9 Y ] 0 > C z t t t t p 0 > M p 0 0 0 0 0 5 & C z t t t t p q & ",
"Q k t t t t p q * d 2 > > > > < $ O C z t t t t p 0 > C z t t t t p 0 > C z t t t t p 0 > C z t t t t p q * d 2 > > > > < $ O C z t t t t p q & ",
"Q k t t t t p 0 4 } ! C C C C Z N t A k t t t t p 0 > C z t t t t p 0 > C z t t t t p 0 > C z t t t t p 0 4 } ! C C C C Z N t A k t t t t p q & ",
"Q k t t t t p 0 > ! v s k z k z p 2 C z t t t t p 0 > C s ` Y 9 Y ] 0 > C z t t t t p 0 > C z t t t t p 0 > ! v s k z k z p 2 C z t t t t p q & ",
"Q k t t t t p 0 > C s ( P 8 P ) 0 > C z t t t t p 0 > Z z J D i D L q < C z t t t t p 0 > C z t t t t p 0 > C s ( P 8 P ) 0 > C z t t t t p q & ",
"Q k t t t t p 0 > C z P G w G I 0 > C z t t t t p q = h 3 ; , 1 , , & + C z t t t t p 0 > C z t t t t p 0 > C z P G w G I 0 > C z t t t t p q & ",
"Q k w e t e i 0 > C z w e t e i 0 > C z t t t t p q > T F s f f f f t : C k t t t t p 0 > C z w e t e i 0 > C z w e t e i 0 > C z t t t t p q & ",
"Q k P G w G I 0 > C z t t t t p 0 > C z t t t t p 0 4 [ E m N V N B n r A k t t t t p 0 > C z P G w G I 0 > C z t t t t p 0 > C z t t t t p q & ",
"Q z ) I 9 I _ 0 < C z t t t t p 0 > C z t t t t p 0 > C s H g w g J 7 > C z t t t t p 0 > Z z ) I 9 I _ 0 < C z t t t t p 0 > C z t t t t p q & ",
"C p 0 0 q 0 q 5 & C z t t t t p 0 > C z t t t t p 0 > C s ` U 9 U ' 0 > C z t t t t p 0 > V p 0 0 q 0 q 5 & C z t t t t p 0 > C z t t t t p q & ",
"t > % & & & & @ X C z t t t t p 0 > C z t t t t p 0 > C z t t t t p 0 > C z t t t t p q * w > % & & & & @ X C z t t t t p 0 > C z t t t t p q & "
};
