/* XPM */
static char *_176e95829bf4f6cdc0f58270e5e3ba8qG8cdjBDXeVGyiBD[] = {
/* columns rows colors chars-per-pixel */
"72 72 244 2 ",
"   c #030202",
".  c #0A0605",
"X  c #0D0906",
"o  c #0D0C0C",
"O  c #140D0A",
"+  c #17120E",
"@  c #1B120D",
"#  c #141313",
"$  c #1C1613",
"%  c #1D1816",
"&  c #1D1C1C",
"*  c #21160F",
"=  c #281A14",
"-  c #231E1C",
";  c #321E16",
":  c #292118",
">  c #2D221C",
",  c #34221A",
"<  c #392619",
"1  c #3B251B",
"2  c #242323",
"3  c #2A2624",
"4  c #2B2926",
"5  c #2A2A2A",
"6  c #352B27",
"7  c #3C2B23",
"8  c #35312F",
"9  c #333333",
"0  c #3A3633",
"q  c #3C3B3A",
"w  c #45291C",
"e  c #562A1C",
"r  c #682F1D",
"t  c #462D22",
"y  c #562C20",
"u  c #4B3123",
"i  c #4A3327",
"p  c #443129",
"a  c #523425",
"s  c #54372A",
"d  c #5C3B2B",
"f  c #483D37",
"g  c #5A3F32",
"h  c #693C29",
"j  c #663D31",
"k  c #52412E",
"l  c #5B4739",
"z  c #63402D",
"x  c #6A452E",
"c  c #6B4534",
"v  c #674A34",
"b  c #744A34",
"n  c #784939",
"m  c #7B5338",
"M  c #454544",
"N  c #4C4C4D",
"B  c #574B44",
"V  c #5A524B",
"C  c #595858",
"Z  c #685648",
"A  c #7B5846",
"S  c #665A54",
"D  c #78665C",
"F  c #636363",
"G  c #696866",
"H  c #6D6C6B",
"J  c #7A7067",
"K  c #747373",
"L  c #7A7A79",
"P  c #8B4517",
"I  c #874C31",
"U  c #83543D",
"Y  c #8A583D",
"T  c #B8572B",
"R  c #A95939",
"E  c #B45C3A",
"W  c #966139",
"Q  c #BC6235",
"!  c #C55C19",
"~  c #D66A0E",
"^  c #CC691D",
"/  c #D56B17",
"(  c #DC771A",
")  c #E47E17",
"_  c #C86729",
"`  c #D17126",
"'  c #D67526",
"]  c #C36B38",
"[  c #CA7239",
"{  c #895747",
"}  c #8E5B43",
"|  c #965B48",
" . c #945B4A",
".. c #8F5251",
"X. c #995851",
"o. c #AA5D42",
"O. c #A45F53",
"+. c #896848",
"@. c #946146",
"#. c #9A6444",
"$. c #9B644A",
"%. c #876455",
"&. c #966954",
"*. c #937351",
"=. c #9A7957",
"-. c #A2654C",
";. c #A86748",
":. c #A66A4D",
">. c #A96B4E",
",. c #B96946",
"<. c #AD754C",
"1. c #B8744E",
"2. c #A46252",
"3. c #AB6655",
"4. c #AA6B56",
"5. c #AF6A55",
"6. c #B06752",
"7. c #B16A56",
"8. c #B16D5B",
"9. c #A87756",
"0. c #B67155",
"q. c #B97256",
"w. c #BF7857",
"e. c #B4725A",
"r. c #B8755A",
"t. c #BF7958",
"y. c #87746A",
"u. c #8E776F",
"i. c #AA7766",
"p. c #B57967",
"a. c #BD7F63",
"s. c #A07874",
"d. c #C97647",
"f. c #C57649",
"g. c #C3754C",
"h. c #C37D55",
"j. c #C97C53",
"k. c #C37D5B",
"l. c #C27F60",
"z. c #EA871C",
"x. c #F38C11",
"c. c #F89619",
"v. c #D88231",
"b. c #EA902B",
"n. c #F59825",
"m. c #FDA125",
"M. c #FEA32C",
"N. c #FDAA35",
"B. c #A68258",
"V. c #BD885A",
"C. c #8D867F",
"Z. c #9D8A7D",
"A. c #A88A66",
"S. c #BF8164",
"D. c #BA856A",
"F. c #A8906F",
"G. c #B8936C",
"H. c #A68777",
"J. c #BB8874",
"K. c #A99173",
"L. c #B89B76",
"P. c #CF8F4D",
"I. c #CB835B",
"U. c #CB865A",
"Y. c #D38453",
"T. c #D0875B",
"R. c #D58B5C",
"E. c #DA8F5C",
"W. c #D4925C",
"Q. c #DB905D",
"!. c #E19742",
"~. c #E6995E",
"^. c #E89C5F",
"/. c #FDB140",
"(. c #C28466",
"). c #CB8661",
"_. c #CC8A67",
"`. c #C1866A",
"'. c #C48B6E",
"]. c #D38D60",
"[. c #CE956C",
"{. c #DB9867",
"}. c #DE9866",
"|. c #C38C70",
" X c #C38C71",
".X c #CE9271",
"XX c #C69678",
"oX c #C4967E",
"OX c #C6987E",
"+X c #D69B78",
"@X c #E99E62",
"#X c #D2A46B",
"$X c #C7A47B",
"%X c #DFA276",
"&X c #DAA47C",
"*X c #EBA76E",
"=X c #ECAE7A",
"-X c #888684",
";X c #8A8A8A",
":X c #968F8C",
">X c #999999",
",X c #AE988C",
"<X c #B2A193",
"1X c #A8A7A7",
"2X c #BAABA5",
"3X c #B8B7B7",
"4X c #C59A81",
"5X c #C79B86",
"6X c #CA9E8B",
"7X c #CAA28D",
"8X c #D6A98A",
"9X c #C5A393",
"0X c #C8AA98",
"qX c #D6AC94",
"wX c #E4AF86",
"eX c #E4B48C",
"rX c #E2B994",
"tX c #CDAFA7",
"yX c #CAB5A8",
"uX c #D6B6A6",
"iX c #C9BCB6",
"pX c #D5BEB4",
"aX c #E6BFA3",
"sX c #EFC699",
"dX c #CCC1BC",
"fX c #D9C3B8",
"gX c #E6C8A6",
"hX c #E4C8B5",
"jX c #E5CCBD",
"kX c #F3D5B2",
"lX c #C8C6C4",
"zX c #D7CBC5",
"xX c #DDD1CC",
"cX c #D7D6D5",
"vX c #E5D3C9",
"bX c #E5D9D4",
"nX c #ECE1DB",
"mX c #F3E5DD",
"MX c #EBE4E1",
"NX c #E9E7E6",
"BX c #F1E9E5",
"VX c #F2EDEB",
"CX c #F5F1EF",
"ZX c #F8F6F5",
/* pixels */
"sX*XU.3...s.9Xr.7.Q.I.t.t.t.t.t.q.7.Q.I.t.t.t.t.t.q.p.wX*X^.^.^.^.^.Q.I.Q.I.t.t.t.t.t.q.7.E.I.l.t.t.t.k.q.7.Q.I.t.t.t.t.t.q.7.Q.I.t.t.t.t.t.q.O.",
"sX*XI.5...s.9Xr.7.Q.I.t.t.t.t.t.q.7.Q.I.t.t.t.t.t.q.8.}.R.U.U.I.U.).k.q.Q.I.t.t.t.t.t.q.7.E.U.4X Xk. X4Xr.7.Q.I.t.t.t.t.t.q.7.Q.I.t.t.t.t.t.q.O.",
"*X].k.0.5.p.D.e.5.E.I.t.t.t.t.t.q.7.Q.I.t.t.t.t.t.q.7.E.U.OX'.k. XoXr.7.Q.I.t.t.t.t.t.0.7.E.I.(.S.t.S.(.e.5.E.I.t.t.t.t.t.q.7.Q.I.t.t.t.t.t.q.O.",
"T.q.5.5.5.5.5.2.2.R.I.t.t.t.t.t.q.7.Q.I.w.w.t.w.w.q.7.E.U. X(.t.(. Xr.7.Q.I.t.t.t.t.t.q.3.k.q.5.5.5.5.5.2.2.R.I.t.t.t.t.t.q.7.Q.I.w.w.t.w.w.q.O.",
"+X).k.k.k.k.k.w.5.Q.I.t.t.t.t.t.q.7.Q.I.t.t.t.t.t.q.7.Q.I.t.t.t.t.t.q.7.Q.I.t.t.t.t.t.q.8..X).k.k.k.k.k.w.5.Q.I.t.t.t.t.t.q.7.Q.I.t.t.t.t.t.q.O.",
"=X}.E.E.E.E.E.U.t.Q.I.t.t.t.t.t.q.7.Q.U. X(.k.(. Xr.7.Q.I.w.w.t.w.w.q.7.Q.I.t.t.t.t.t.q.8.%X}.E.E.E.E.E.U.t.Q.I.t.t.t.t.t.q.7.Q.U. X(.k.(. Xr.O.",
"@XU.'.(.k.(.'.r.7.Q.I.t.t.t.t.t.0.7.E.U.oX'.t. XoXr.7.Q.I.t.t.w.w.w.q.7.E.I.t.t.t.t.t.q.7.Q.U.'.(.k.(.'.r.7.Q.I.t.t.t.t.t.0.7.E.U.oX'.t.'.oXr.O.",
"^.U.4X Xt. X4Xr.7.Q.I.t.t.t.t.t.0.5.T.k.r.r.q.r.r.7.3.E.I.t.t.w.q.w.7.6.R.j.w.t.t.t.t.q.7.E.U.4X Xt. X4Xr.7.Q.I.t.t.t.t.t.0.5.T.k.r.r.q.r.r.7.X.",
"^.I.k.t.t.t.k.q.7.Q.I.t.t.t.t.t.0.3.l.r.7.7.7.7.7.2.2.R.I.t.t.q.Q ,.,.o.d.f.q.w.t.t.t.q.7.E.I.k.t.t.t.k.q.7.Q.I.t.t.t.t.t.0.3.l.r.7.7.7.7.7.2...",
"^.I.t.t.t.t.t.q.7.Q.I.t.t.t.t.t.0.8.&X}.Q.E.Q.Q.E.T.t.Q.j.q.1.,.T T Q T T _ 1.w.q.w.t.q.7.Q.I.t.t.t.t.t.q.7.Q.I.t.t.t.t.t.0.8.&X}.Q.E.Q.Q.E.T.0.",
"^.I.t.t.t.t.t.q.7.Q.I.t.t.t.t.t.q.8.}.R.U.U.I.U.U.k.0.R.g.o.E E T ! / ! ! ^ f.1.,.r. Xr.7.Q.I.t.t.t.t.t.q.7.Q.I.t.t.t.t.t.q.8.}.R.U.U.I.U.U.k.3.",
"^.I.t.t.t.t.t.q.7.Q.I.t.t.t.t.t.q.7.E.U.OX'.k. XoXr.7.R.g.E _ ` ` ) z.) ( ( _ Q Q ,.t.0.5.E.I.t.t.t.t.t.q.7.Q.I.t.t.t.t.t.q.7.E.U.OX'.k. XoXr.O.",
"^.I.t.t.t.t.t.q.7.Q.I.w.w.t.w.w.q.7.E.U. X(.t.(. Xr.7.R.g.E ` z.z.n.m.n.n.z.` _ _ E ;.2.2.R.I.t.t.t.t.t.q.7.Q.I.w.w.t.w.w.q.7.E.U. X(.t.S.D.0.O.",
"^.I.t.t.t.t.t.q.7.Q.I.t.t.t.t.t.q.7.Q.I.t.t.t.k.t.q.7.R.g.Q ` ) c.m.N./.M.z.z.' _ ,.g.q.5.Q.I.t.t.t.t.t.q.7.Q.I.t.t.t.t.t.q.7.Q.I.t.t.w.0.-.5.O.",
"^.I.t.t.t.t.t.q.7.Q.U. X(.k.(. Xr.7.Q.I.w.w.t.w.w.q.7.R.g.E ' n.n.m.m.N.M.z.z.( ` [ j.U.t.Q.I.t.t.t.t.t.q.7.Q.U. X(.k.(. Xr.7.Q.I.w.q.5.$.%.4.O.",
"^.I.t.t.t.t.t.0.7.E.U.oX'.t.'.oXr.7.Q.I.t.t.t.t.t.q.7.R.f.Q v.M.m.c.c.n.n.z.( / / ] t.r.7.Q.I.t.t.t.t.t.0.7.E.U.oX'.t.'.oXr.7.Q.I.q.5.@.%.y.i.2.",
"^.I.t.t.t.t.t.0.5.T.k.r.r.q.r.r.7.3.E.I.t.t.t.t.t.q.7.Y.[ ' b.m.c.x.) ( ( ~ ! ! ^ g. Xr.7.Q.I.t.t.t.t.t.0.5.T.k.r.r.q.r.r.7.3.E.I.5.} Z y.<XD.2.",
"^.I.t.t.t.t.t.0.3.l.r.7.7.7.7.7.2.2.R.I.t.t.t.t.t.q.7.j.] ' z.c.c.z.` [ [ ` _ _ _ ,.w.q.7.Q.I.t.t.t.t.t.0.3.l.r.7.7.7.7.7.2.2.T.<.b i S :XyXJ.O.",
"^.I.t.t.t.t.t.0.8.&X}.Q.E.Q.Q.E.T.t.Q.I.t.t.t.t.t.q.7.j.] ` ) x.c.v.f.h.j.j.j.f.T ,.q.q.7.Q.I.t.t.t.t.t.0.8.&X}.Q.E.Q.Q.E.T.q.U.U t 2 K 1XyXJ.O.",
"^.I.t.t.t.t.t.q.8.}.R.U.U.I.U.U.k.0.Q.I.t.t.t.t.t.q.7.Y.g.Q ( x.b.P.I.[.[.[.&X).,.1.w.q.7.Q.I.t.t.t.t.t.q.8.}.R.I.I.I.I.I.w.-.#.1 6 C 1XiX6Xa.O.",
"^.I.t.t.t.t.t.q.7.E.U.OX'.k. XoXr.7.Q.I.t.t.t.t.w.0.7.j.,.T / ) !.W._.qX$XG.XXD.#.0.t.q.7.Q.I.t.t.t.t.t.q.7.Q.I.k.t.t.t.0.} j u + M :XiXtX Xr.O.",
"^.I.w.w.t.w.w.q.7.E.U. X(.t.(. Xr.7.Q.I.t.t.t.t.w.q.3.,.E T ! ^ P.W.+XhX0XB.A.9.} 0.t.q.7.Q.I.w.w.t.w.w.q.7.E.I.t.w.w.0.$.d = . # G lXiX6Xk.q.O.",
"^.I.t.t.t.t.t.q.7.Q.I.t.t.t.t.t.q.7.Q.I.t.t.t.t.w.q.8._.q.R P P W V.eXkXgXqXL.=.} 7.t.q.7.Q.I.t.t.t.t.t.q.7.Q.I.t.w.0.Y s * X o q ;XzX0X Xt.q.O.",
"^.U. X(.k.(. Xr.7.Q.I.w.w.t.w.w.q.7.Q.I.t.t.t.t.w.q.8.[.<.I h h I 9.8XkXkXgXL.=.} 7.w.q.7.Q.U. X(.k.(. Xr.7.Q.I.q.:.U a * . o 5 L 1XiX4XS.t.q.O.",
"^.U.oX'.t.'.oXr.7.Q.I.t.t.t.t.t.q.7.Q.I.t.t.t.t.t.0.3.<.b w i l +.=.G.gXkXsXA.*.$.0.t.0.7.E.U.oX'.t.'.oXr.7.E.j.-.m t @   o 3 C 3XiX6X(.t.t.q.O.",
"Q.k.r.r.q.r.r.7.3.E.I.t.t.t.t.t.q.7.Q.I.t.t.t.t.t.7.| m u e j %.K.A.=.$X$XG.+.@.0.w.t.0.5.T.k.r.r.q.r.r.7.3.T.<.c ; O . o 9 H 1XzXtX(.t.t.t.q.O.",
").r.7.7.7.7.7.2.2.R.I.t.t.t.t.t.q.7.Q.I.t.t.t.t.w.-.n l 7 w h &.0XL.B.*.*.*.@.:.w.t.t.0.3.l.r.7.7.7.7.5.2.{ ;.b , . . # 9 L 3XcXzX7Xt.t.t.t.q.O.",
"wX}.E.E.Q.Q.E.T.t.Q.I.t.t.t.t.t.q.7.E.I.k.k.t.t.t.| i f q 1 r | yXyXK.l l { 4.q.t.t.t.0.8.&X}.Q.E.E.R.U.1.m z = X . # q L lXnXnXuXoXt.k.t.k.r.O.",
"*XR.U.U.I.U.).k.0.Q.I.t.t.t.t.t.q.7.E.U.4X Xk. XoX} 7 0 q 7 e Y 0XyX,Xf l @.0.w.t.t.t.q.8.}.R.U.U.I.0.@.d , @ X . & C >XlXxXfXuXOX5X Xk. X4Xr.O.",
"@XU.OX'.k. XoXr.7.Q.I.t.t.t.t.t.0.7.E.I.(.S.t.S.D.{ > 5 9 6 e I K.<X;X8 a Y 0.t.t.t.t.q.7.E.U.OXD.4.A f = X . o 3 C 1XcXBXfX9X+X).(.(.t.S.(.e.O.",
"^.U. X(.t.(. Xr.7.Q.I.t.t.t.t.t.q.3.k.q.5.5.5.5.3.n = - 5 5 w r %.u.G & , x :.w.t.w.w.q.7.E.I.D.9.U 7 o     o 8 G 1XNXZXBXtXJ.(.r.5.5.5.5.5.2...",
"^.I.t.t.t.t.t.q.7.Q.I.t.t.t.t.t.q.8..X).k.k.k.k.h.{ = & 2 5 7 e b l 5 o = d -.w.t.t.t.q.7.R.0.} z 1 O     o 9 L 3XMXCXVXvX5Xp..X).k.k.k.k.k.w.2.",
"^.I.w.w.t.w.w.q.7.Q.I.t.t.t.t.t.q.8.%X}.E.E.E.R.T.#., - 2 5 8 p y ; o   @ w &.S.t.(. Xe.-.<.U a = X . o 2 M L lXNXZXnXxXtXJ.p.%X}.E.E.E.E.E.U.0.",
"^.I.t.t.t.t.t.q.7.Q.I.t.t.t.t.t.q.7.Q.U.'.(.k.(.`.| t 3 2 5 9 q 6 & o o . $ %.i.t.'.oX4.n x , O . . # 9 F 1XcXVXZXVXfX9XJ.r.7.Q.U.'.(.k.(.'.r.2.",
"^.I.t.t.t.t.t.q.7.Q.I.t.t.t.t.t.q.7.E.U.4X Xt. XoX| t , 2 5 9 M C G G q & O s } 7.5.| j 1 = X . # 5 C ;X3XcXBXmXbXxX9X Xt.r.7.E.U.4X Xt. X4Xr.O.",
"^.I.t.t.t.t.t.q.7.Q.I.t.t.t.t.t.q.7.E.I.k.t.t.t.t.} 1 = & 3 q C y.,X<XJ 0 o , j } n a = X . o & q H 1XcXCXVXmXvXfX0X Xa.w.q.7.E.I.k.t.t.t.k.q.O.",
"^.I.t.t.t.t.t.q.7.E.I.k.t.t.t.k.q.7.Q.I.t.t.t.w.q.U = o o 2 M H Z.L.#XG.Z # > d m 1 @ . . # 5 V -XlXNXZXZXMXvXfX0X Xt.t.k.q.7.Q.I.t.t.t.t.t.q.O.",
"^.I.t.t.t.t.t.q.7.E.U.4X Xk. X4Xr.7.Q.I.t.t.t.w.>.b @   o 5 C K S *.P.#X=.l V S S - o & 9 C -X<XdXMXBXBXVXbXfX0X9X Xk. X4Xr.7.Q.I.t.t.t.t.t.q.O.",
"^.I.t.t.t.t.t.0.7.E.I.(.(.t.S.(.e.5.E.I.t.t.t.q.} s O   o q F H 0 v <.#X$XF.Z.C.K 6 2 M L 1XzXbXnXVXbXvXxXyXqX XJ.S.t.S.(.e.5.E.I.t.t.t.t.t.q.O.",
"^.I.t.t.t.t.t.q.3.k.r.e.p.p.8.7.2.2.R.I.t.t.w.0.n 1 .   # N F C q k A &XsXgXgX0X:XZ B J iXVXCXnXbXMXxXyX9XJ.(.r.8.5.5.5.5.2.2.R.I.t.t.t.t.t.q.O.",
"^.I.t.t.t.t.t.q.8..X+X8XqX6X).k.w.5.Q.I.t.t.q.>.d +     & H K F N B Z XXrXsX$XH.y.+.A D iXZXZXNXvXfX0X4XD.i..X).k.k.k.k.k.w.5.Q.I.t.t.t.t.t.q.O.",
"^.I.t.t.t.t.t.q.p.eXaXjXhXeX{.Q.U.t.Q.I.t.t.q.:.l 5 3 2 9 K K F S Z A B.G.G.+.A { :.$.{ 2XMXVXbXpX9XJ.a.q.8.%X}.E.E.E.E.E.U.t.Q.I.t.t.t.t.t.q.O.",
"^.I.t.t.t.t.t.q.p.aXvXbXqX'.(.'.r.7.Q.I.t.t.t.D.Z.;X;XL F N N V +.9.B.m v l t c :.0.e.i.2XzXzX0XoXS.t.t.q.7.Q.U.'.(.k.(.'.r.7.Q.I.t.t.t.t.t.q.O.",
"^.I.t.t.t.t.t.r.p.jXvXfX6Xl. X4Xr.7.Q.I.k.`.5XuXyX1X1X>X-XC C D *.+.m 1 : > , c 5.q.r.p.,XqX7X Xa.t.t.t.q.7.E.U.4X Xt. X4Xr.7.Q.I.t.t.t.t.t.q.O.",
"^.I.t.t.t.t.t.r.p.vXhX7X(.t.t.k.q.7.E.I.(.5XpXbXiX>X;X;X;XF H J A k : X . # > v :.q.k.r.e.{.U.t.t.t.t.t.q.7.E.I.k.t.t.t.k.q.7.Q.I.t.t.t.t.t.q.O.",
"^.I.l.t.t.t.k.r.p.jXfX4X(.t.t.t.q.7.E.).XXpXxXlX-XN q M M q N C 4 + .   o # : s } 0.t.q.7.Q.I.k.t.t.t.k.q.7.Q.I.t.t.t.t.t.q.7.Q.I.t.t.t.t.t.q.O.",
"^.U.4X Xk. X4Xr.p.jXfX4X(.t.t.t.q.7.{.+XuXfXiXC.N 5 3 5 5 & 3 5 o       o & & 7 c :.w.q.7.E.U.4X Xk. X4Xr.7.Q.I.t.t.t.t.t.q.7.Q.I.t.t.t.t.t.q.O.",
"~.I.(.S.t.S.(.e.p.jXfX7X(.t.t.t.q.8.}.qXzXiXZ.f 3 & 3 5 3 o o O X     . # & & > s $.w.0.7.E.I.(.S.t.S.D.e.5.E.I.t.t.t.t.t.q.7.Q.I.t.t.t.t.t.q.O.",
"T.q.5.5.5.5.5.3.i.jXbXfX4X(.t.t.r.p.rXfXzXZ.B % % & 2 3 3 & 6 u 7 $     o & & 3 p $.w.q.3.k.q.5.5.5.5.5.2.2.R.I.t.t.t.t.t.q.7.Q.I.w.w.t.w.w.q.O.",
"+X).k.k.k.k.k.w.p.gXvXbXuX6X X(.a.4XhXdX<XZ > . # & 2 & & 2 p z z ;     o & 2 3 p $.w.q.8..X).k.k.k.k.k.w.5.Q.I.t.t.t.t.t.q.7.Q.I.t.t.t.t.t.q.O.",
"=X}.E.E.E.E.E.U.l.8XhXMXbXpX0XXX4XtXzX2XD 6 .   # 2 2 # # - p c U w     o & 2 3 p $.w.0.8.%X}.E.E.E.E.E.U.t.Q.I.t.t.t.t.t.q.7.Q.U. X(.k.(. Xr.O.",
"@XU.'.(.k.(.'.r.8.{.8XfXzXzXzXdXiXdX0Xy.0 +   . & 3 & # # & p v U w     o & & 2 p } 0.0.7.Q.U.'.(.k.(.'.r.7.Q.I.t.t.t.t.t.0.7.E.U.oX Xt.'.oXr.O.",
"^.U.4X Xt. X4Xr.7.Q..X6X0XyXiXiXyX2XH.l +   . o & 3 2 & & & i b b 1     o & & 2 6 n -.0.7.E.U.4X Xk. X4Xr.7.Q.I.t.t.t.t.t.0.5.T.k.r.r.q.r.r.7.X.",
"^.I.k.t.t.t.l.r.7.Q.I.k.D.oX5X5X,XH.A , .   o & 2 2 3 2 2 - d m s =     o & 2 2 3 g } 7.7.E.I.k.t.t.t.k.q.7.Q.I.t.t.t.t.t.0.3.l.r.7.7.7.7.7.2...",
"^.I.t.t.t.t.t.q.7.Q.I.t.t.S.S.S.p.&.v *   o # 5 5 3 5 5 2 - c } 1 O     o & 5 3 3 g } 7.7.Q.I.t.t.t.t.t.q.7.Q.I.t.t.t.t.t.0.8.&X}.Q.E.Q.Q.E.T.0.",
"^.I.t.t.t.t.t.q.7.Q.I.t.t.t.t.t.7.| u X . # 3 9 5 3 5 5 4 t U @.; X     o # 3 5 3 l =.e.7.Q.I.t.t.t.t.t.q.7.Q.I.t.t.t.t.t.q.8.}.R.U.U.I.U.U.k.3.",
"^.I.t.t.t.t.t.q.7.Q.I.t.t.t.t.t.5.{ 1 . o 3 9 9 5 3 3 3 7 c #.$., X       o & 2 3 l &.7.5.E.I.t.t.t.t.t.q.7.Q.I.t.t.t.t.t.q.7.E.U.OX'.k. XoXr.O.",
"^.I.t.t.t.t.t.q.7.Q.I.w.w.t.w.w.5.{ 1 o 2 9 9 5 5 5 2 - 7 U >.$., X       . # % > c | 2.$.R.I.t.t.t.t.t.q.7.Q.I.w.w.t.w.w.q.7.E.U. X(.t.(. Xr.O.",
"^.I.t.t.t.t.t.q.7.Q.I.t.t.t.t.t.5.{ w % 5 9 8 5 5 3 2 7 z -.0.-.a @     + = , > , b :.q.5.Q.I.t.t.t.t.t.q.7.Q.I.t.t.t.t.t.q.7.Q.I.t.t.t.t.t.q.O.",
"^.I.t.t.t.t.t.q.7.Q.U. X(.k.(. X0.} a - 8 5 3 3 2 - 3 c #.0.w.0.U w . O t c b a 1 z #.j.t.Q.I.t.t.t.t.t.q.7.Q.U. X(.k.(. Xr.7.Q.I.w.w.t.w.w.q.O.",
"^.I.t.t.t.t.t.0.7.E.U.oX'.t.'.oXe.X.b t 7 , > 1 % % i #.w.w.t.q.>.b 1 = a x s u w , v :.5.Q.I.t.t.t.t.t.0.7.E.U.oX'.t.'.oXr.7.Q.I.t.t.t.t.t.q.O.",
"^.I.t.t.t.t.t.0.5.T.k.r.r.q.r.r.7.2.Y d t , , w = , n w.I.t.t.t.w.#.c a x c l g d t Z :.3.Q.I.t.t.t.t.t.0.5.T.k.r.r.q.r.r.7.3.E.I.t.t.t.t.t.q.O.",
"^.I.t.t.t.t.t.0.3.l.r.7.7.7.7.7.2.| W z u 1 1 t u c X.R.I.t.t.t.t.0.-.n W Y { U U U $.5.5.Q.I.t.t.t.t.t.0.3.l.r.7.7.7.7.7.2.2.R.I.t.t.t.t.t.q.O.",
"^.I.t.t.t.t.t.0.8.&X}.Q.E.Q.Q.E.T.q.w.#.U U U U } | 3.E.I.k.k.t.t.t.7.-.I.<.>.>.>.>.0.0.7.Q.I.t.t.t.t.t.0.8.&X}.Q.E.Q.Q.E.T.t.Q.I.t.t.t.t.t.q.O.",
"^.I.t.t.t.t.t.q.8.}.R.U.U.I.U.).k.0.R.h.0.0.0.0.0.7.7.E.U.4X Xk. X4Xr.7.Q.I.t.t.t.t.t.q.7.Q.I.t.t.t.t.t.q.8.}.R.U.U.I.U.U.k.0.Q.I.t.t.t.t.t.q.O.",
"^.I.t.t.t.t.t.q.7.E.U.OX'.k. XoXr.7.E.I.w.w.w.w.w.0.7.E.I.(.S.t.S.(.e.5.E.I.t.t.t.t.t.q.7.Q.I.t.t.t.t.t.q.7.E.U.OX'.k. XoXr.7.Q.I.t.t.t.t.t.q.O.",
"^.I.w.w.t.w.w.q.7.E.U. X(.t.(. Xr.7.Q.I.t.t.t.t.t.0.3.k.q.5.5.5.5.5.2.2.R.I.t.t.t.t.t.q.7.Q.I.w.w.t.w.w.q.7.E.U. X(.t.(. Xr.7.Q.I.t.t.t.t.t.q.O.",
"^.I.t.t.t.t.t.q.7.Q.I.t.t.t.t.t.q.7.Q.I.t.t.t.t.t.0.8..X).k.k.k.k.k.w.5.Q.I.t.t.t.t.t.q.7.Q.I.t.t.t.t.t.q.7.Q.I.t.t.t.t.t.q.7.Q.I.t.t.t.t.t.q.O.",
"^.U. X(.k.(. Xr.7.Q.I.w.w.t.w.w.q.7.Q.I.t.t.t.t.t.q.8.%X}.E.E.E.E.E.U.t.Q.I.t.t.t.t.t.q.7.Q.U. X(.k.(. Xr.7.Q.I.w.w.t.w.w.q.7.Q.I.t.t.t.t.t.q.O.",
"^.U.oX'.t.'.oXr.7.Q.I.t.t.t.t.t.q.7.Q.I.t.t.t.t.t.q.7.Q.U.'.(.k.(.'.r.7.Q.I.t.t.t.t.t.0.7.E.U.oX'.t.'.oXr.7.Q.I.t.t.t.t.t.q.7.Q.I.t.t.t.t.t.q.O.",
"Q.k.r.r.q.r.r.5.3.E.I.t.t.t.t.t.q.7.Q.I.t.t.t.t.t.q.7.E.U.4X Xt. X4Xr.7.Q.I.t.t.t.t.t.0.5.T.k.r.r.q.r.r.5.3.E.I.t.t.t.t.t.q.7.Q.I.t.t.t.t.t.q.O.",
"k.3.O.O.O.O.O.X.| R.I.t.t.t.t.t.q.7.Q.I.t.t.t.t.t.q.7.E.I.l.t.k.t.k.q.7.Q.I.t.t.t.t.t.0.3.q.3.O.O.O.O.O.X.| R.I.t.t.t.t.t.q.7.Q.I.t.t.t.t.t.q.O."
};
