/* XPM */
static char *ed23021c54ab49df9602af5298d53c2fzYg2EQj6G5CQo1AU[] = {
/* columns rows colors chars-per-pixel */
"72 72 200 2 ",
"   c #08013D",
".  c #0D0848",
"X  c #100540",
"o  c #10114E",
"O  c #131354",
"+  c #36365D",
"@  c #132C65",
"#  c #0E336D",
"$  c #14356C",
"%  c #19376E",
"&  c #16396D",
"*  c #1A396D",
"=  c #183566",
"-  c #153672",
";  c #193772",
":  c #163871",
">  c #1A3972",
",  c #163A7C",
"<  c #1A3D7A",
"1  c #223B71",
"2  c #273F7F",
"3  c #243569",
"4  c #1C4279",
"5  c #3A486B",
"6  c #244478",
"7  c #334475",
"8  c #7A5F5C",
"9  c #4C4362",
"0  c #524F67",
"q  c #59566B",
"w  c #485577",
"e  c #565974",
"r  c #585272",
"t  c #4A596B",
"y  c #665A65",
"u  c #6E5865",
"i  c #775F61",
"p  c #615D70",
"a  c #7D687F",
"s  c #8C4F4F",
"d  c #8F524E",
"f  c #90554E",
"g  c #995750",
"h  c #975A50",
"j  c #925450",
"k  c #A45F53",
"l  c #94695D",
"z  c #AC634B",
"x  c #A36253",
"c  c #AB6654",
"v  c #AE6955",
"b  c #AD6A5A",
"n  c #A36C58",
"m  c #B26C55",
"M  c #B16E5C",
"N  c #B66B52",
"B  c #A6735F",
"V  c #AE7158",
"C  c #B67056",
"Z  c #BC7557",
"A  c #BF7857",
"S  c #B6735B",
"D  c #BA755A",
"F  c #B77B5F",
"G  c #BF7958",
"H  c #896966",
"J  c #996D64",
"K  c #996F6A",
"L  c #916A60",
"P  c #9A7469",
"I  c #8C7174",
"U  c #9C7C79",
"Y  c #977878",
"T  c #876871",
"R  c #AB7768",
"E  c #B27461",
"W  c #BF7F60",
"Q  c #B57B6A",
"!  c #A17A75",
"~  c #C47B57",
"^  c #CA7D55",
"/  c #C37C59",
"(  c #C27F61",
")  c #BE8064",
"_  c #BE866C",
"`  c #BC8374",
"'  c #CC845A",
"]  c #CD895F",
"[  c #C3835F",
"{  c #D28659",
"}  c #D68D5B",
"|  c #DA8E5C",
" . c #D28657",
".. c #DB915D",
"X. c #E89C5F",
"o. c #E6995D",
"O. c #C28363",
"+. c #CC8961",
"@. c #C18669",
"#. c #C48B6E",
"$. c #CB8662",
"%. c #D48D61",
"&. c #D69060",
"*. c #DE9866",
"=. c #DE9968",
"-. c #DE9968",
";. c #DC9567",
":. c #C28B70",
">. c #C28C71",
",. c #C18D72",
"<. c #C48E71",
"1. c #C48C70",
"2. c #C38D71",
"3. c #CB9170",
"4. c #C5977E",
"5. c #C4977D",
"6. c #C5977E",
"7. c #C6987E",
"8. c #C6987E",
"9. c #C9997E",
"0. c #D19571",
"q. c #D79E78",
"w. c #E09A67",
"e. c #E99E62",
"r. c #DEA276",
"t. c #D9A17B",
"y. c #EBA76E",
"u. c #ECA96F",
"i. c #E9A670",
"p. c #EDB27F",
"a. c #183882",
"s. c #1A4282",
"d. c #194888",
"f. c #244A8C",
"g. c #224586",
"h. c #3C4F8F",
"j. c #254D94",
"k. c #2B4C93",
"l. c #2E4D9A",
"z. c #275199",
"x. c #2B549E",
"c. c #2D5696",
"v. c #395399",
"b. c #2D59A5",
"n. c #2B5DAC",
"m. c #255AA8",
"M. c #325EAC",
"N. c #3557A5",
"B. c #305FB2",
"V. c #2C61AE",
"C. c #3161B4",
"Z. c #3B6DB8",
"A. c #3C72B8",
"S. c #435684",
"D. c #455891",
"F. c #4C6183",
"G. c #596084",
"H. c #5A6B93",
"J. c #6C799E",
"K. c #626A88",
"L. c #4D6CA5",
"P. c #456DB0",
"I. c #4578BE",
"U. c #587DB0",
"Y. c #8C7780",
"T. c #7C85A1",
"R. c #6682B1",
"E. c #5E97D3",
"W. c #558CCB",
"Q. c #659CDB",
"!. c #6595CD",
"~. c #6EA4DB",
"^. c #679EE1",
"/. c #75AAE2",
"(. c #79ADE4",
"). c #7EB3E9",
"_. c #A9899B",
"`. c #808CA9",
"'. c #C39780",
"]. c #C39780",
"[. c #C59A81",
"{. c #C59A81",
"}. c #CA9F88",
"|. c #C6A48F",
" X c #C6A895",
".X c #E2AD85",
"XX c #E6B186",
"oX c #F4C698",
"OX c #83B7E6",
"+X c #8CBBE6",
"@X c #93C5ED",
"#X c #ACCBEC",
"$X c #A3CEF7",
"%X c #ABD4F5",
"&X c #B0D8F7",
"*X c #BAE6FD",
"=X c #D9E4EF",
"-X c #C6E2F4",
";X c #E1E5EF",
":X c #F2FBFF",
/* pixels */
"oXu.' c s U  XF m | ' G G G G G C m | ' G G G G G m E .Xu.o.o.o.o.o...' ..' G G G G G C m | ' W G G / O.C m | ' G G G G G C m | ' G G G G G C k ",
"oXy.' c j ! |.F m | ' G G G G G C m | ' G G G G G m M -.%.] ] ' ] +./ C ..' G G G G G m m | +.[.<./ <.[.S m | ' G G G G G C m | ' G G G G G C k ",
"i.%.~ C v E _ S v | ' G G G G G C m | ' G G G G G m m | ] 4.#.G :.4.S m | ' G G G G G C m } ' _ ) Z ) @.C v | ' G G G G G C m | ' G G G G G C k ",
"' C v v v v v x x } ' G G G G G C m | ' A A A A A m m | ' >.@.G @.<.S m | ' G G G G G C c ~ C v v v v v x x } ' G G G G G C m | ' A A A A A C k ",
"q.$.~ ~ ~ ~ ^ Z m ..' G G G G G C m | ' G A A G G C m | ' G A A G / C m | ' G G G G G C b 3.+.~ ~ ~ ~ ~ Z m ..' G G G G G C m | ' G A A G G C k ",
"p.*.| | | | | ' / ..' G G G G G C m | ' >.@.G @.<.S m | ' A A A A A m m | ' G G G G G C M r.w.| | | | | ' / ..' G G G G G C m | ' >.@.G @.<.D k ",
"e.] #.O./ O.#.D m | ' G G G G G C m | ] 4.#.G <.8.S m | ' G G G G G C m | ' G G G G G C m ..] #.O./ O.#.D m | ' G G G G G C m | ] 4.#.G <.8.D k ",
"o.] [.>.G >.[.S m | ' G G G G G C v ' / S S C S S v c | ' G G G G G C m | ' G G G G G C m | ] ].>.G >.[.S m | ' G G G G G C v ' / S S C S S v g ",
"X.' W G G / O.C m | ' G G G G G C b O.D m m m m m x x } ' G G G G G C m | ' A A G A A m m | ' W G G / O.C m | ' G G G G G C b O.D m m m m m c f ",
"X.' A A G A A m m | ' G G G G G C M t.-.| | | | | ' G ..' G G G G G C m | ' W G G / O.C m | ' A A G A A m m | ' G G G G G C M t.-.| | | | | ' C ",
"X.' G G G G G C m | ' G G G G G m M -.&.+.' ' ' +./ C ..' G G G G G m m | +.[.<./ <.[.S m | ' G G G G G C m | ' G G G G G m M -.&.+.' ' ' +./ c ",
"X.' G G G G G C m | ' G G G G G m m | ] 4.#.G :.4.S m | ' G G G G G C m } ' _ ) Z ) @.C v | ' G G G G G C m | ' G G G G G m m | ] 4.#.G :.4.S k ",
"X.' G G G G G C m | ' A A A A A m m | ' >.@.G @.<.S m | ' G G G G G C c ~ C v v v v v x x } ' G G G G G C m | ' A A A A A m m | ' >.@.G @.<.S k ",
"X.' G G G G G C m | ' G A A G G C m | ' G A A G / C m | ' G G G G G C b 3.+.~ ~ ~ ~ ~ Z m ..' G G G G G C m | ' G A A G G C m | ' G A A G / C k ",
"X.' G G G G G C m | ' >.@.G @.<.S m | ' A A A A A m m | ' G G G G G C M r.w.| | | | | ' / ..' G G G G G C m | ' >.@.G @.<.S m | ' A A A A A C k ",
"X.' G G G G G C m | ] 4.#.G <.8.S m | ' G G G G G C m | ' G G G G G C m ..] #.O./ O.#.D m | ' G G G G G C m | ] 4.#.G <.8.S m | ' G G G G G C k ",
"X.' G G G G G C v ' / S S C S S v c | ' G G G G G C m | ' G G G G G C m | ] ].>.G >.[.S m | ' G G G G G C v ' / S S C S S v c | ' G G G G G C k ",
"X.' G G G G G C b O.D m m m m m x x } ' G G G G G C m | ' A A G A A m m | ' W G G / O.C m | ' G G G G G C b ( D m m m m m x x } ' G G G G G C k ",
"X.' G G G G G C M t.-.| | | | | ' G ..' G G G G G C m | ' W G G / O.C m | ' A A G A A m m | ' G G G G G C M t.-.| | | | | ' G ..' G G G G G C k ",
"X.' G G G G G m M -.&.+.' ' ' +./ C ..' G G G G G m m | +.[.<./ <.[.S m | ' G G G G G C m | ' G G G G G m M -.%.' ' ' ' ' / C ..' G G G G G C k ",
"X.' G G G G G m m | ] 4.#.G :.4.S m | ' G G G G G C m } ' _ ) Z ) @.C v | ' G G G G G C m | ' G G G G G m m | ' Z G G G G m m | ' G G G G G C k ",
"X.' A A A A A m m | ' >.@.G @.<.S m | ' G G G G G C c ~ C v v v v v x x } ' G G G G G C m | ' A A A A A m m | ' G G G G G m m | ' G G G G G C k ",
"X.' G A A G G C m | ' G A A G / C m | ' G G G G G C b 3.+.~ ~ ~ ~ ~ Z m ..' G G G G G C m | ' G A A G G C m | ' G G G G G C m | ' G G G G G C k ",
"o.] >.@.G @.<.S m | ' A A A A A m m | ' G G G G G C M r.w.| | | | | ' / ..' G G G G G C m | ' >.@.G @.<.S m | ' G G G G G C m | ' G G G G G C k ",
"o.] 4.>.G <.8.S m | ' G G G G G C m | ' G G G G G C m ..] #.O./ O.#.D v %.] G G G G G C m | ] 4.#.G <.8.S m | ' G G G G G C m | ' G G G G G C k ",
"../ S S C S S v c | ' G G G G G C m | ' G G G G G C m | ] ].>.G >.9.P = h.` ~ G G G G C v ' / S S C S S v c | ' G G G G G C m | ' G G G G G C k ",
"$.D m m m m m x x } ' G G G G G C m | ' A A G A A m m | ' O.L S / ) 0 - , a ~ G G G G C b O.D m m m m m x x } ' G G G G G C m | ' A A G A A C k ",
"XX-.| | | | | ' G ..' G G G G G C m | ' W G G / O.C m | ' A V G ~ G 5 $ # 0 ~ G G G G C M t.-.| | | | | ' G ..' G G G G G C m | ' W G G / O.C k ",
"y.%.+.' ' ' +./ C ..' G G G G G m m | +.[.<./ <.[.S m | ' G ~ B F L 3 : $ 7 R ~ G G G m M -.&.+.' ' ' +./ C ..' G G G G G m m | +.[.<./ <.[.D k ",
"o.] 4.:.G :.4.S m | ' G G G G G C m } ' _ ) Z ) @.C v | ' A ~ q H i # > - a.T ^ ~ G G m m | ] 4.#.G :.4.S m | ' G G G G G C m } ' _ ) Z ) @.S k ",
"o.] >.@.G @.<.S m | ' G G G G G C c ~ C v v v v v x x } ' ~ K $ 5 e - * > $ 8 n K / A m m | ' >.@.G @.<.S m | ' G G G G G C c ~ C v v v v v x d ",
"X.' G A A G / C m | ' G G G G G C b 3.+.~ ~ ~ ~ ~ Z m ..' ~ q # * $ & & ; $ y 5 k.R ~ m m | ' G A A G / C m | ' G G G G G C b 3.+.~ ~ ~ ~ ~ A x ",
"X.' A A A A A m m | ' G G G G G C M r.w.| | | | | ' / ..' / w # * % $ - - * * * # p 3.S m | ' A A A A A m m | ' G G G G G C M r.w.| | | | | ' C ",
"X.' G G G G G C m | ' G G G G G C m ..] #.O./ O.#.D m | { J * & & * $ ; ; & : : # G.}.S m | ' G G G G G C m | ' G G G G G C m ..] #.O./ O.#.D x ",
"X.' G G G G G C m | ' G G G G G C m | ] ].>.G >.[.S m | { K * & & - & * * & : & $ v._.z c | ' G G G G G C m | ' G G G G G C m | ] ].>.G >.[.S k ",
"X.' G G G G G C m | ' A A G A A m m | ' W G G / O.C m | { K * & & - : $ & : ; * = l._.z x } ' G G G G G C m | ' A A G A A m m | ' W G G / O.C k ",
"X.' G G G G G C m | ' W G G / O.C m | ' A A G A A m m |  .Y * $ & & : & * $ g.< % , K.0.A ..' G G G G G C m | ' W G G / O.C m | ' A A G A A C k ",
"X.' G G G G G m m | +.[.<./ <.[.S m | ' G G G G G C m | { q $ ; $ & - & % $ j.j.> , 5 #.C ..' G G G G G m m | +.[.<./ <.[.S m | ' G G G G G C k ",
"X.' G G G G G C m } ' _ ) Z ) @.C v | ' G G G G G m m | $.F.1 $ ; & - ; - $ k.x.- z.S.Q v | ' G G G G G C m } ' _ ) Z ) @.C v | ' G G G G G C k ",
"X.' G G G G G C c ~ C v v v v v x x } ' G G G G G C m | 3.H.3 @ < # > % < & k.x.s.x.S._ m | ' G G G G G C c ~ C v v v v v x x } ' G G G G G C k ",
"X.' G G G G G C b 3.+.~ ~ ~ ~ ~ Z m ..' G G G G G C m | 0.+   % c.6 = $ f.4 f.b.x.z.e D m | ' G G G G G C b 3.+.~ ~ ~ ~ ~ Z m ..' G G G G G C k ",
"X.' G G G G G C M r.w.| | | | | ' / ..' G G G G G m m | +.9 X ; P.D.@ < j.s.j.C.M.c.U N m | ' G G G G G C M r.w.| | | | | ' / ..' G G G G G C k ",
"X.' G G G G G C m ..] #.O./ O.#.D m | ' G G G G G C m | %.Y.o N.l.O 2 j.M.d.b.C.n.6 B C m | ' G G G G G C m ..] #.O./ O.#.D m | ' G G G G G C k ",
"X.' G G G G G C m | ] ].>.G >.[.S m | ' G G G G G C v ' ~ Y 1 M.k.. l.C.C.n.B.C.m.y ~ m m | ' G G G G G C m | ] ].>.G >.[.S m | ' G G G G G C k ",
"X.' A A G A A m m | ' W G G / O.C m | ' G G G G G C b O.D Q w j.L.. x.n.I.Q.A.Z.Z.u ^ m m | ' A A G A A m m | ' W G G / O.C m | ' G G G G G C k ",
"o.' W / G / O.C m | ' A A G A A m m | ' G G G G G C M t.-...t d.!.L.A.W./.OXE.Q.L.J ~ m m | ' W G G / O.C m | ' A A G A A m m | ' G G G G G C k ",
"o.+.[.<./ <.[.S m | ' G G G G G C m | ' G G G G G m M -.%.%.P > I.(.E./.$X@X/.^.w A / m m | +.[.<./ <.[.S m | ' G G G G G C m | ' G G G G G C k ",
"o.' _ ) Z ) @.C v | ' G G G G G C m | ' G G G G G m m | ] 4.3.r V./.OX+X%X%X).R.l ~ G C m } ' _ ) Z ) @.C v | ' G G G G G C m | ' G G G G G C k ",
"] C v v v v v x x } ' G G G G G C m | ' A A A A A m m | ' >.O.R J.Q.&X-X-X*X).I ^ G G C c ~ C v v v v v x x } ' G G G G G C m | ' A A A A A C k ",
"q.$.~ ~ ~ ~ ~ Z m ..' G G G G G C m | ' G A A G G C m | ' G G ~ F T.#X:X:X#X`.D / G G C b 3.+.~ ~ ~ ~ ~ Z m ..' G G G G G C m | ' G A A G G C k ",
"p.*.| | | | | ' / ..' G G G G G C m | ' >.@.G @.<.S m | ' A A G / D T.=X;XU.I ~ G G G C M r.w.| | | | | ' / ..' G G G G G C m | ' >.@.G @.<.D k ",
"e.] #.O./ O.#.D m | ' G G G G G C m | ] 4.#.G <.8.S m | ' G G G G A C S ;.[ D G G G G C m ..] #.O./ O.#.D m | ' G G G G G C m | ] 4.#.G <.8.D k ",
"o.] [.>.G >.[.S m | ' G G G G G C v ' / S S C S S v c | ' G G G G G m m | ' G G G G G C m | ] ].>.G >.[.S m | ' G G G G G C v ' / S S C S S v g ",
"X.' W G G / O.S m | ' G G G G G C b O.D m m m m m x x } ' G G G G G C m | ' A A G A A m m | ' W G G / O.C m | ' G G G G G C b O.D m m m m m c f ",
"X.' A A G A A m m | ' G G G G G C M t.-.| | | | | ' G ..' G G G G G C m | ' W G G / O.C m | ' A A G A A m m | ' G G G G G C M t.-.| | | | | ' C ",
"X.' G G G G G C m | ' G G G G G m M -.&.+.' ' ' +./ C ..' G G G G G m m | +.[.<./ <.[.S m | ' G G G G G C m | ' G G G G G m M -.&.+.' ' ' +./ c ",
"X.' G G G G G C m | ' G G G G G m m | ] 4.#.G :.4.S m | ' G G G G G C m } ' _ ) Z ) @.C v | ' G G G G G C m | ' G G G G G m m | ] 4.#.G :.4.S k ",
"X.' G G G G G C m | ' A A A A A m m | ' >.@.G @.<.S m | ' G G G G G C c ~ C v v v v v x x } ' G G G G G C m | ' A A A A A m m | ' >.@.G @.<.S k ",
"X.' G G G G G C m | ' G A A G G C m | ' G A A G / C m | ' G G G G G C b 3.+.~ ~ ~ ~ ~ Z m ..' G G G G G C m | ' G A A G G C m | ' G A A G / C k ",
"X.' G G G G G C m | ' >.@.G @.<.S m | ' A A A A A m m | ' G G G G G C M r.w.| | | | | ' / ..' G G G G G C m | ' >.@.G @.<.S m | ' A A A A A C k ",
"X.' G G G G G C m | ] 4.#.G <.8.S m | ' G G G G G C m | ' G G G G G C m ..] #.O./ O.#.D m | ' G G G G G C m | ] 4.#.G <.8.S m | ' G G G G G C k ",
"X.' G G G G G C v ' / S S C S S v c | ' G G G G G C m | ' G G G G G C m | ] ].>.G >.[.S m | ' G G G G G C v ' / S S C S S v c | ' G G G G G C k ",
"X.' G G G G G C b O.D m m m m m x x } ' G G G G G C m | ' A A G A A m m | ' W G G / O.C m | ' G G G G G C b O.D m m m m m x x } ' G G G G G C k ",
"X.' G G G G G C M t.-.| | | | | ' G ..' G G G G G C m | ' W G G / O.C m | ' A A G A A m m | ' G G G G G C M t.-.| | | | | ' G ..' G G G G G C k ",
"X.' G G G G G m M -.&.+.' ' ' +./ C ..' G G G G G m m | +.[.<./ <.[.S m | ' G G G G G C m | ' G G G G G m M -.&.+.' ' ' +./ C ..' G G G G G C k ",
"X.' G G G G G m m | ] 4.#.G :.4.S m | ' G G G G G C m } ' _ ) Z ) @.C v | ' G G G G G C m | ' G G G G G m m | ] 4.#.G :.4.S m | ' G G G G G C k ",
"X.' A A A A A m m | ' >.@.G @.<.S m | ' G G G G G C c ~ C v v v v v x x } ' G G G G G C m | ' A A A A A m m | ' >.@.G @.<.S m | ' G G G G G C k ",
"X.' G A A G G C m | ' G A A G / C m | ' G G G G G C b 3.+.~ ~ ~ ~ ~ Z m ..' G G G G G C m | ' G A A G G C m | ' G A A G / C m | ' G G G G G C k ",
"o.] >.@.G @.<.S m | ' A A A A A m m | ' G G G G G C M r.w.| | | | | ' / ..' G G G G G C m | ' >.@.G @.<.S m | ' A A A A A m m | ' G G G G G C k ",
"o.] 4.>.G >.8.S m | ' G G G G G C m | ' G G G G G C m ..] #.O./ O.#.D m | ' G G G G G m m | ] 4.#.G >.8.S m | ' G G G G G C m | ' G G G G G C k ",
"../ S S C D D v c | ' G G G G G C m | ' G G G G G C m | ] ].>.G >.[.S m | ' G G G G G C v { / S S C D D v c | ' G G G G G C m | ' G G G G G C k ",
"/ c k k k k k g h } ' G G G G G C m | ' G G G G G C m | ' W G G / O.C m | ' G G G G G C c C c k k k k k g h } ' G G G G G C m | ' G G G G G C k "
};
