/* XPM */
static char *cb285cc449d240b9a1a3b438ae5f5b07ZJSYmFzz2hWK2boR[] = {
/* columns rows colors chars-per-pixel */
"72 72 141 2 ",
"   c #5E3D47",
".  c #5B3F49",
"X  c #633B46",
"o  c #6B3B45",
"O  c #743D45",
"+  c #7A3E46",
"@  c #56444C",
"#  c #5A424B",
"$  c #56494F",
"%  c #5B4A4F",
"&  c #554D51",
"*  c #5E4E52",
"=  c #555253",
"-  c #5C5252",
";  c #6B454C",
":  c #664B4F",
">  c #6B494E",
",  c #764047",
"<  c #74474C",
"1  c #7C4449",
"2  c #724A4C",
"3  c #7A4A49",
"4  c #66504F",
"5  c #6C514E",
"6  c #6C5A4C",
"7  c #7B5E47",
"8  c #71524D",
"9  c #7F5149",
"0  c #735C49",
"q  c #634D51",
"w  c #615151",
"e  c #7D6146",
"r  c #943D3F",
"t  c #9D3D3F",
"y  c #A63B3C",
"u  c #A93B3B",
"i  c #BC3E37",
"p  c #B33D39",
"a  c #B93E38",
"s  c #C33F36",
"d  c #CB3F34",
"f  c #9F413F",
"g  c #A5423D",
"h  c #AC443B",
"j  c #A4493F",
"k  c #AC4C3E",
"l  c #B5413A",
"z  c #BB4338",
"x  c #B34D3C",
"c  c #B9493A",
"v  c #A4573D",
"b  c #A55C3B",
"n  c #B85C36",
"m  c #B55439",
"M  c #92663E",
"N  c #94683D",
"B  c #9D6A3A",
"V  c #AA6D35",
"C  c #A66239",
"Z  c #A86139",
"A  c #A36938",
"S  c #BA6234",
"D  c #B66E32",
"F  c #BA6B32",
"G  c #B97030",
"H  c #F6711E",
"J  c #F37C1C",
"K  c #DF462F",
"L  c #DB4C2E",
"P  c #D5572F",
"I  c #D75D2D",
"U  c #D95C2D",
"Y  c #C44035",
"T  c #CD4133",
"R  c #C34C37",
"E  c #CF4A34",
"W  c #C24B38",
"Q  c #D54331",
"!  c #DC4530",
"~  c #D24931",
"^  c #D04A34",
"/  c #D14A34",
"(  c #C85733",
")  c #C95C30",
"_  c #E1472F",
"`  c #E5462F",
"'  c #E04F2B",
"]  c #E5482E",
"[  c #E8492D",
"{  c #EA5727",
"}  c #EC5B26",
"|  c #E65329",
" . c #E6532A",
".. c #EA512B",
"X. c #E95629",
"o. c #CC622E",
"O. c #CD672D",
"+. c #CD6E2B",
"@. c #DC6D26",
"#. c #DA622A",
"$. c #DD6828",
"%. c #C4722C",
"&. c #C8712B",
"*. c #D77426",
"=. c #DC7126",
"-. c #ED6224",
";. c #F26323",
":. c #843F45",
">. c #8E3E43",
",. c #933F42",
"<. c #9B3D40",
"1. c #983F41",
"2. c #824247",
"3. c #854246",
"4. c #8B4145",
"5. c #8C4044",
"6. c #8B4444",
"7. c #8F4644",
"8. c #844847",
"9. c #894946",
"0. c #8D4D45",
"q. c #804248",
"w. c #814348",
"e. c #914043",
"r. c #974141",
"t. c #934642",
"y. c #944642",
"u. c #984041",
"i. c #9B4741",
"p. c #924D44",
"a. c #9D4E41",
"s. c #815747",
"d. c #8F5045",
"f. c #825A46",
"g. c #805249",
"h. c #905145",
"j. c #935B41",
"k. c #A14F40",
"l. c #A15040",
"z. c #836243",
"x. c #896441",
/* pixels */
"J ..a 4.o # - - - - - - - - - - - - - - - - - - - - - - - - - - - - - - - - - - - - - - - - - - - - - - - - - - - - - - - - - - - - - - - - - - ",
"J ..a 4.o @ 8 / E E / E E E E / R r.w %.P E E E E E E E E E E E E E / E f q G I E E E E E E E E E E E E E E E g q V #.E E E E E E E E E E E E E ",
"X.Y u y t r f i i i i i i i i i p 3.w P T a i i i i i i i i i i i i i a 4.- ( / a i i i i i i i i i i i i i a e.* m L a i i i i i i i i i i i i ",
"` p y u u u u y y y y y y y y u y < - / a y y y y y y y y y y y y y u y 1 - R s y y y y y y y y y y y y y y y 2.- x T y y y y y y y y y y y y y ",
"] p u u u u u u u u u u u u u u y < - / i y u u u u u u u u u u u u u y 1 - R Y y u u u u u u u u u u u u u u 2.- x T y u u u u u u u u u u u u ",
"] p u u u u u u u u u u u u u u y < - / i y u u u u u u u u u u u u u y 1 - R Y y u u u u u u u u u u u u u u 2.- x T y u u u u u u u u u u u u ",
"] p u u u u u u u u u u u u u u y < - / i y u u u u u u u u u u u u u y 1 - R Y y u u u u u u u u u u u u u u 2.- x T y u u u u u u u u u u u u ",
"] p u u u u u u u u u u u u u u y < - / i u u u u u u u u u u u u u u y 1 - R Y u u u u u u u u u u u u u u u 2.- x T y u u u u u u u u u u u u ",
"_ u y y y y y y y y y y y y y y t < - E a y y y y y y y y y y y y y y y , - W Y y y y y y y y y y y y y y y y 2.- x T y y y y y y y y y y y y y ",
"u 3.1 1 1 1 1 1 1 1 1 1 1 1 1 1 , X - f 4.1 1 1 1 1 1 1 1 1 1 1 1 1 1 , X * u.e.< 1 1 1 1 1 1 1 1 1 1 1 1 1 1 X * 7.u.< 1 1 1 1 1 1 1 1 1 1 1 1 ",
"q - - - - - - - - - - - - - - - - * - w - - - - - - - - - - - - - - - - * = w - - - - - - - - - - - - - - - - * = - w - - - - - - - - - - - - - ",
"W R R R R R c 6.- - G ( W R R R R R R W R R R R R R W u.w V ) W R R R R R R W W R R R R R R f q B o.W R R R R R R W W R R R R R R g : M O.W R R ",
"Y Y Y Y Y Y p 3.- - U / s Y Y Y Y Y Y Y Y Y Y Y Y Y Y e.- ) L s Y Y Y Y Y Y Y Y Y Y Y Y Y Y <.q n ' s Y Y Y Y Y Y Y Y Y Y Y Y Y Y t q b  .s Y Y ",
"y y y y y u <.< - - / a y y y y y y y y y y y y y u y < - W s y y y y y y y y y y y y y y y q.- x T y y y y y y y y y y y y y y u 3.* k.Q y y y ",
"u u u u u u t < - - / i y u u u u u u u u u u u u u y 1 - R Y y u u u u u u u u u u u u u u 2.- x T y u u u u u u u u u u u u u u 3.* k.Q y u u ",
"u u u u u u t < - - / i y u u u u u u u u u u u u u y 1 - R Y y u u u u u u u u u u u u u u 2.- x T y u u u u u u u u u u u u u u 3.* k.Q y u u ",
"u u u u u u t < - - / i y u u u u u u u u u u u u u y 1 - R Y y u u u u u u u u u u u u u u 2.- x T y u u u u u u u u u u u u u u 3.* k.Q y u u ",
"u u u u u u t < - - / i y u u u u u u u u u u u u u y 1 - R Y y u u u u u u u u u u u u u u 2.- x T y u u u u u u u u u u u u u u 3.* k.Q y u u ",
"u u u u u u t < - - / a y u u u u u u u u u u u u u y 1 - R Y y u u u u u u u u u u u u u y 2.- x T y u u u u u u u u u u u u u u 3.* k.Q y u u ",
"2.2.2.2.2.2.+ X - - g e.2.2.2.2.2.2.2.2.2.2.2.2.2.2.2.X * f u.q.2.2.2.2.2.2.2.2.2.2.2.2.2.2.o * y.t q.2.2.2.2.2.2.2.2.2.2.2.2.2.2.o % 9.y q.2.2.",
"* * - - - - * & = = : q - - - - - - q * * - - - - - * & = q q - - - - - - q * * - - - - - - & = w q - - - - - - w * * - - - - - - & = - q - - - ",
"G m x x x x x x x x x x x x x x k 6.- V m x x x x x x x x x x x x x x x 7.- A n x x x x x x x x x x x x x x x t.q N S x x x x x x x x x x x x x ",
";.~ T T T T T T T T T T T T T T Y e.w #.L T T T T T T T T T T T T T T T <.q o.' d T T T T T T T T T T T T T T t q S  .d T T T T T T T T T T T T ",
"` p y y y y y y y y y y y y y y y < - / a y y y y y y y y y y y y y y y < - W s y y y y y y y y y y y y y y y q.- x d y y y y y y y y y y y y y ",
"] p u u u u u u u u u u u u u u y < - / i y u u u u u u u u u u u u u y 1 - R Y y u u u u u u u u u u u u u u 2.- x T y u u u u u u u u u u u u ",
"] p u u u u u u u u u u u u u u y < - / i y u u u u u u u u u u u u u y 1 - R Y y u u u u u u u u u u u u u u 2.- x T y u u u u u u u u u u u u ",
"] p u u u u u u u u u u u u u u y < - / i y u u u u u u u u u u u u u y 1 - R Y y u u u u u u u u u u u u u u 2.- x T y u u u u u u u u u u u u ",
"] p u u u u u u u u u u u u u u y < - / i y u u u u u u u u u u u u u y 1 - R Y y u u u u u u u u u u u u u u 2.- x T y u u u u u u u u u u u u ",
"] p u u u u u u u u u u u u u u y < - / i u u u u u u u u u u u u u u y 1 - R Y u u u u u u u u u u u u u u u 2.- x T y u u u u u u u u u u u u ",
"a e.3.3.3.3.3.3.3.3.3.3.3.3.3.4.:.X - h r.3.3.3.3.3.3.3.3.3.3.3.3.3.4.3.o * g <.3.3.3.3.3.3.3.3.3.3.3.3.3.3.3.o * i.y 3.3.3.3.3.3.3.3.3.3.3.3.3.",
"2 q * * * * * q q q * * * * * * * $ = > q * * * * * * q q q * * * * * * $ = > : * * * * * * q q q * * * * * * $ = : > * * * * * * q q q * * * * ",
"a.k.k.k.k.k.a.3 - - B v k.k.k.k.k.k.k.k.k.k.k.k.k.k.a.8.- M b k.k.k.k.k.k.k.k.k.k.k.k.k.k.k.9.q x.b k.k.k.k.k.k.k.k.k.k.k.k.k.k.k.9.q e Z k.k.k.",
"Q Q Q Q Q Q Y 5.- - $.' Q Q Q Q Q Q Q Q Q Q Q Q Q Q Q t q O. .Q Q Q Q Q Q Q Q Q Q Q Q Q Q Q y q S { Q Q Q Q Q Q Q Q Q Q Q Q Q Q Q u : C } Q Q Q ",
"y y y y y u <.< - - / a y y y y y y y y y y y y y u y < - W s y y y y y y y y y y y y y y y q.- x T y y y y y y y y y y y y y y u 3.* k.Q y y y ",
"u u u u u u t < - - / i y u u u u u u u u u u u u u y 1 - R Y y u u u u u u u u u u u u u u 2.- x T y u u u u u u u u u u u u u u 3.* k.Q y u u ",
"u u u u u u t < - - / i y u u u u u u u u u u u u u y 1 - R Y y u u u u u u u u u u u u u u 2.- x T y u u u u u u u u u u u u u u 3.* k.Q y u u ",
"u u u u u u t < - - / i y u u u u u u u u u u u u u y 1 - R Y y u u u u u u u u u u u u u u 2.- x T y u u u u u u u u u u u u u u 3.* k.Q y u u ",
"u u u u u u t < - - / i y u u u u u u u u u u u u u y 1 - R Y y u u u u u u u u u u u u u u 2.- x T y u u u u u u u u u u u u u u 3.* k.Q y u u ",
"u u u u u u t < - - / i u u u u u u u u u u u u u u y 1 - R Y u u u u u u u u u u u u u u u 2.- x T u u u u u u u u u u u u u u u 4.* k.Q u u u ",
"5.5.5.5.5.5.:.X - - l <.5.5.5.5.5.5.5.5.5.5.5.5.5.5.4.o - h y 4.5.5.5.5.5.5.5.5.5.5.5.5.5.5.o * i.u 4.5.5.5.5.5.5.5.5.5.5.5.5.5.5.O % p.p 4.5.5.",
"q q q q q q % @ = = 2 : q q q q q q > q q q q q q q q @ = 2 > q q q q q q > q q q q q q q q @ = > 2 q q q q q q > q q q q q q q q @ & > 2 q q q ",
"M h.0.d.d.d.h.h.p.p.d.d.d.d.d.h.0.2 - x.j.0.d.d.d.d.d.h.p.d.d.d.d.d.h.0.3 - z.j.0.d.d.d.d.d.h.h.d.d.d.d.d.d.d.3 - e j.0.d.d.d.d.d.h.h.d.d.d.d.d.",
"H L ! ! ! ! ! ! ! ! ! ! ! ! ! ! Q <.w @. .! ! ! ! ! ! ! ! ! ! ! ! ! ! Q y q +.{ ! ! ! ! ! ! ! ! ! ! ! ! ! ! ! u q F } ! ! ! ! ! ! ! ! ! ! ! ! ! ",
"` p y u u u u u u u u u u u u u y < - / a y u u u u u u u u u u u u u y 1 - R s y u u u u u u u u u u u u u y 2.- x T y u u u u u u u u u u u u ",
"] p u u u u u u u u u u u u u u y < - / i y u u u u u u u u u u u u u y 1 - R Y y u u u u u u u u u u u u u u 2.- x T y u u u u u u u u u u u u ",
"] p u u u u u u u u u u u u u u y < - / i y u u u u u u u u u u u u u y 1 - R Y y u u u u u u u u u u u u u u 2.- x T y u u u u u u u u u u u u ",
"] p u u u u u u u u u u u u u u y < - / i y u u u u u u u u u u u u u y 1 - R Y y u u u u u u u u u u u u u u 2.- x T y u u u u u u u u u u u u ",
"] p u u u u u u u u u u u u u u y < - / i y u u u u u u u u u u u u u y 1 - R Y y u u u u u u u u u u u u u u 2.- x T y u u u u u u u u u u u u ",
"[ p u u u u u u u u u u u u u u y < - / i u u u u u u u u u u u u u u y 1 - R Y u u u u u u u u u u u u u u u 2.- x T u u u u u u u u u u u u u ",
"T <.,.,.,.,.,.,.,.,.,.,.,.,.,.<.>.o - z y ,.,.,.,.,.,.,.,.,.,.,.,.,.,.,.o - h u ,.,.,.,.,.,.,.,.,.,.,.,.,.,.,.O * j p ,.,.,.,.,.<.,.<.<.,.<.,.,.",
"3.> : : : : : : > > : : : : : : : @ = 1 2 : : : : : : : > : : : : : : : # = 3 < q : : : : : : > : q : : : : : # & 2 < q : : : : : : : : q : : : ",
"9 9 9 9 9 9 9 > - - 7 s.9 9 9 9 9 g.g.9 9 9 9 9 9 9 9 > - 0 s.9 9 9 9 9 g.g.9 9 9 9 9 9 9 9 2 - 0 f.9 9 9 9 9 g.g.9 9 9 9 9 9 9 9 2 - 6 f.9 9 9 ",
"K K K K K _ Q r.- - =...! K K K K K K K K K K K K _ ! y q +.} ! K K K K K K K K K K K K K K u : F ;.! K K K K K K K K K K K K K _ p > A ;.! K K ",
"u u u u u u t < - - / i u u u u u u u u u u u u u u y 1 - R Y u u u u u u u u u u u u u u u 2.- x T u u u u u u u u u u u u u u u 4.* l.Q u u u ",
"u u u u u u t < - - / i y u u u u u u u u u u u u u y 1 - R Y y u u u u u u u u u u u u u u 2.- x T y u u u u u u u u u u u u u u 3.* k.Q y u u ",
"u u u u u u t < - - / i y u u u u u u u u u u u u u y 1 - R Y y u u u u u u u u u u u u u u 2.- x T y u u u u u u u u u u u u u u 3.* k.Q y u u ",
"u u u u u u t < - - / i y u u u u u u u u u u u u u y 1 - R Y y u u u u u u u u u u u u u u 2.- x T y u u u u u u u u u u u u u u 3.* k.Q y u u ",
"u u u u u u t < - - / i y u u u u u u u u u u u u u y 1 - R Y y u u u u u u u u u u u u u u 2.- x T y u u u u u u u u u u u u u u 3.* k.Q y u u ",
"u u u u u u y < - - / i u u u u u u u u u u u u u u y 1 - R Y u u u u u u u u u u u u u u u 2.- x T u u u u u u u u u u u u u u u 4.q k.Q u u u ",
"<.<.<.<.<.<.>.; - - z u <.<.<.<.<.<.<.<.<.<.<.<.<.<.<.O - c p <.<.<.<.<.<.<.<.<.<.<.<.<.<.<.O * j z <.<.<.<.<.<.<.<.<.<.<.<.<.<.<.+ * a.Y <.<.<.",
"> > > > > > ; # - - 6.< > > > > > > 2 > > > > > > > : . = 8.1 > > > > > > 2 > > > > > > > > . & 3 q.: > > > > > 2 > > > > > > > > # & 2 3.: > > ",
"0 8 8 8 8 8 8 8 8 8 8 8 8 8 8 8 8 4 - 6 8 8 8 8 8 8 8 8 8 8 8 8 8 8 8 8 : - 6 8 8 8 8 8 8 8 8 8 8 8 8 8 8 8 8 5 - 6 0 8 8 8 8 8 8 8 8 8 8 8 8 8 ",
"J ' ! ! ! ! ! ! ! ! ! ! ! ! ! ! Q t w *. .! ! ! ! ! ! ! ! ! ! ! ! ! ! ! y q &.{ ! ! ! ! ! ! ! ! ! ! ! ! ! ! ! u > D -.! ! ! ! ! ! ! ! ! ! ! ! ! ",
"[ a u u u u u p p p u u u u u p u 1 w / Y u u p u u u u p p u u u u p u q.- R Y u u p p p p u u u u u u p u u 3.- m ~ u u u u u u u u p p p u u ",
"` p y u u u u u u u u u u u u u y < - / a y u u u u u u u u u u u u u y 1 - R Y y u u u u u u u u u u u u u y 2.- x T y u u u u u u u u u u u u ",
"] p u u u u u u u u u u u u u u y < - / i y u u u u u u u u u u u u u y 1 - R Y y u u u u u u u u u u u u u u 2.- x T y u u u u u u u u u u u u ",
"] p u u u u u u u u u u u u u u y < - / i y u u u u u u u u u u u u u y 1 - R Y y u u u u u u u u u u u u u u 2.- x T y u u u u u u u u u u u u ",
"] p u u u u u u u u u u u u u u y < - / i y u u u u u u u u u u u u u y 1 - R Y y u u u u u u u u u u u u u u 2.- x T y u u u u u u u u u u u u ",
"] p u u u u u u u u u u u u u u y < - / i u u u u u u u u u u u u u u y 1 - R Y u u u u u u u u u u u u u u u 2.- x T y u u u u u u u u u u u u ",
"Q y t t t t t t t t t t t t t t <., - W u t t t t t t t t t t t t t t t , - c l <.t t t t t t t t t t t t t t + * k Y <.t t t t t t t t t t t t ",
"t < < < < < < < < < < < < < < < <   - e.1 < < < < < < < < < < < < < < <   - 6.3.< < < < < < < < < < < < < < < X * 3.4.< < < < < < < < < < < < < ",
"- - - - - - - - - - - - - - - - - - - - - - - - - - - - - - - - - - - - - - - - - - - - - - - - - - - - - - - - - - - - - - - - - - - - - - - - "
};
